<?xml version="1.0" encoding="UTF-8"?>
<!DOCTYPE svg PUBLIC "-//W3C//DTD SVG 1.1//EN" "http://www.w3.org/Graphics/SVG/1.1/DTD/svg11.dtd">
<svg xmlns="http://www.w3.org/2000/svg" version="1.1" width="234px" height="220px" style="shape-rendering:geometricPrecision; text-rendering:geometricPrecision; image-rendering:optimizeQuality; fill-rule:evenodd; clip-rule:evenodd" xmlns:xlink="http://www.w3.org/1999/xlink">
<g><path style="opacity:1" fill="#fefefd" d="M -0.5,-0.5 C 77.5,-0.5 155.5,-0.5 233.5,-0.5C 233.5,72.8333 233.5,146.167 233.5,219.5C 155.5,219.5 77.5,219.5 -0.5,219.5C -0.5,146.167 -0.5,72.8333 -0.5,-0.5 Z"/></g>
<g><path style="opacity:1" fill="#fdf0dc" d="M 109.5,18.5 C 99.2551,16.242 88.9217,15.9087 78.5,17.5C 82.7825,16.1734 87.4492,15.5067 92.5,15.5C 97.1667,15.8333 101.833,16.1667 106.5,16.5C 107.602,17.1757 108.602,17.8423 109.5,18.5 Z"/></g>
<g><path style="opacity:1" fill="#fb9b48" d="M 121.5,24.5 C 121.719,25.675 121.386,26.675 120.5,27.5C 117.655,27.7657 115.322,28.7657 113.5,30.5C 112.387,31.9464 112.22,33.6131 113,35.5C 114.649,37.4755 116.482,39.1422 118.5,40.5C 120.663,45.4242 124.33,46.7575 129.5,44.5C 130.254,41.223 130.754,37.8897 131,34.5C 132.011,35.3366 133.178,35.67 134.5,35.5C 134.215,37.288 134.548,38.9547 135.5,40.5C 139.546,43.9229 141.38,48.2562 141,53.5C 138.33,51.9952 136.164,49.9952 134.5,47.5C 132.783,48.6685 132.116,50.3352 132.5,52.5C 135.114,52.2771 136.781,53.4438 137.5,56C 139.433,56.2511 141.266,56.7511 143,57.5C 143.499,62.4889 143.666,67.4889 143.5,72.5C 143.5,73.8333 143.5,75.1667 143.5,76.5C 142.833,77.8333 142.167,79.1667 141.5,80.5C 139.078,81.0852 137.411,82.5852 136.5,85C 135.552,85.4828 134.552,85.6495 133.5,85.5C 133.354,87.9424 134.187,88.6091 136,87.5C 136.346,89.8477 137.513,91.6811 139.5,93C 143.29,93.2297 146.624,94.563 149.5,97C 152.432,97.9533 155.432,98.4533 158.5,98.5C 163.732,99.7948 169.065,100.461 174.5,100.5C 180.15,100.403 185.483,99.4027 190.5,97.5C 197.698,96.3248 204.365,93.9915 210.5,90.5C 210.611,89.8826 210.944,89.3826 211.5,89C 214.833,88.3333 218.167,88.3333 221.5,89C 222.435,91.3806 222.768,93.8806 222.5,96.5C 222.667,107.172 222.5,117.839 222,128.5C 221.141,133.934 219.974,139.267 218.5,144.5C 218.5,145.167 218.167,145.5 217.5,145.5C 216.85,145.804 216.183,146.137 215.5,146.5C 214.813,144.726 213.98,143.059 213,141.5C 212.408,144.694 212.574,147.861 213.5,151C 212.245,154.656 210.745,158.156 209,161.5C 208,162.833 207,162.833 206,161.5C 205.51,162.793 205.343,164.127 205.5,165.5C 204.167,165.5 202.833,165.5 201.5,165.5C 201.5,164.5 201.5,163.5 201.5,162.5C 198.068,162.757 194.734,163.424 191.5,164.5C 184.953,162.142 178.287,161.976 171.5,164C 168.598,167.929 164.931,170.596 160.5,172C 161.624,172.249 162.624,172.749 163.5,173.5C 162.691,175.071 162.357,176.738 162.5,178.5C 162.5,178.833 162.5,179.167 162.5,179.5C 161.776,181.218 161.109,183.052 160.5,185C 153.501,186.597 146.501,186.763 139.5,185.5C 138.831,183.369 138.165,181.369 137.5,179.5C 137.011,178.005 136.345,176.671 135.5,175.5C 135.167,174.167 134.833,172.833 134.5,171.5C 134.231,166.904 131.898,164.238 127.5,163.5C 120.085,162.108 112.751,162.442 105.5,164.5C 105.5,165.5 105.5,166.5 105.5,167.5C 104.167,167.5 102.833,167.5 101.5,167.5C 101.5,169.167 101.5,170.833 101.5,172.5C 101.5,172.833 101.5,173.167 101.5,173.5C 100.067,174.953 98.4001,175.787 96.5,176C 86.9946,168.315 82.6612,158.315 83.5,146C 83.7275,139.049 84.7275,132.215 86.5,125.5C 87.5,125.5 88.5,125.5 89.5,125.5C 89.3801,123.266 89.7135,121.099 90.5,119C 89.7679,117.235 88.4346,116.068 86.5,115.5C 87.5,114.667 88.5,113.833 89.5,113C 85.9577,112.838 82.4577,113.338 79,114.5C 75.4586,113.975 71.9586,113.308 68.5,112.5C 67.8333,112.5 67.5,112.167 67.5,111.5C 67.3059,109.088 65.9726,108.088 63.5,108.5C 63.6602,106.801 63.4935,105.134 63,103.5C 61.8869,102.289 60.7202,102.289 59.5,103.5C 58.8333,101.833 58.1667,100.167 57.5,98.5C 56.549,99.3256 55.549,99.4922 54.5,99C 53.9103,97.4905 53.2436,95.9905 52.5,94.5C 51.8165,94.8627 51.1499,95.1961 50.5,95.5C 50.1667,95.5 49.8333,95.5 49.5,95.5C 44.527,87.9531 41.8603,79.6198 41.5,70.5C 42.3291,64.6466 43.1625,58.6466 44,52.5C 45.9532,49.7449 47.1199,46.7449 47.5,43.5C 48.8221,43.67 49.9887,43.3366 51,42.5C 52.3465,37.7295 54.8465,33.7295 58.5,30.5C 58.8333,29.5 59.5,28.8333 60.5,28.5C 63.5993,28.9077 65.9326,27.741 67.5,25C 71.7185,22.4756 75.0519,23.3089 77.5,27.5C 79.1093,25.0598 81.4426,23.8931 84.5,24C 81.6405,22.9239 78.6405,22.0905 75.5,21.5C 75.8333,21.1667 76.1667,20.8333 76.5,20.5C 82.8033,19.9107 88.97,18.9107 95,17.5C 103.964,19.1479 112.798,21.4812 121.5,24.5 Z"/></g>
<g><path style="opacity:1" fill="#f19f56" d="M 109.5,18.5 C 114.048,19.5613 118.048,21.5613 121.5,24.5C 112.798,21.4812 103.964,19.1479 95,17.5C 88.97,18.9107 82.8033,19.9107 76.5,20.5C 76.1667,20.8333 75.8333,21.1667 75.5,21.5C 78.6405,22.0905 81.6405,22.9239 84.5,24C 81.4426,23.8931 79.1093,25.0598 77.5,27.5C 75.0519,23.3089 71.7185,22.4756 67.5,25C 65.9326,27.741 63.5993,28.9077 60.5,28.5C 62.0038,26.1644 64.0038,24.331 66.5,23C 70.71,21.3914 74.71,19.5581 78.5,17.5C 88.9217,15.9087 99.2551,16.242 109.5,18.5 Z"/></g>
<g><path style="opacity:1" fill="#fef5e2" d="M 125.5,25.5 C 126.873,25.3433 128.207,25.51 129.5,26C 130.726,27.6349 132.059,29.1349 133.5,30.5C 134.696,30.1543 134.696,29.6543 133.5,29C 134.448,28.5172 135.448,28.3505 136.5,28.5C 136.67,29.8221 136.337,30.9887 135.5,32C 136.701,32.9025 137.535,34.0692 138,35.5C 138.667,34.1667 139.333,34.1667 140,35.5C 139.022,39.3672 140.522,41.8672 144.5,43C 143.903,44.0617 143.57,45.2284 143.5,46.5C 145.48,55.7277 145.98,65.0611 145,74.5C 144.722,75.4158 144.222,76.0825 143.5,76.5C 143.5,75.1667 143.5,73.8333 143.5,72.5C 147.322,53.1333 141.322,37.4666 125.5,25.5 Z"/></g>
<g><path style="opacity:1" fill="#f5c99d" d="M 113.5,30.5 C 122.426,31.0961 127.426,35.7628 128.5,44.5C 125.343,44.9215 123.01,43.7548 121.5,41C 120.552,40.5172 119.552,40.3505 118.5,40.5C 116.482,39.1422 114.649,37.4755 113,35.5C 112.22,33.6131 112.387,31.9464 113.5,30.5 Z"/></g>
<g><path style="opacity:1" fill="#eda460" d="M 58.5,30.5 C 54.8465,33.7295 52.3465,37.7295 51,42.5C 49.9887,43.3366 48.8221,43.67 47.5,43.5C 49.3784,37.624 53.0451,33.2907 58.5,30.5 Z"/></g>
<g><path style="opacity:1" fill="#eba86a" d="M 47.5,43.5 C 47.1199,46.7449 45.9532,49.7449 44,52.5C 43.1625,58.6466 42.3291,64.6466 41.5,70.5C 41.1667,70.5 40.8333,70.5 40.5,70.5C 39.8333,70.5 39.1667,70.5 38.5,70.5C 40.1695,63.3028 41.8361,55.9695 43.5,48.5C 44.593,46.6508 45.9263,44.9842 47.5,43.5 Z"/></g>
<g><path style="opacity:1" fill="#f39f55" d="M 121.5,24.5 C 122.833,24.8333 124.167,25.1667 125.5,25.5C 141.322,37.4666 147.322,53.1333 143.5,72.5C 143.666,67.4889 143.499,62.4889 143,57.5C 141.266,56.7511 139.433,56.2511 137.5,56C 136.781,53.4438 135.114,52.2771 132.5,52.5C 132.116,50.3352 132.783,48.6685 134.5,47.5C 136.164,49.9952 138.33,51.9952 141,53.5C 141.38,48.2562 139.546,43.9229 135.5,40.5C 134.548,38.9547 134.215,37.288 134.5,35.5C 133.178,35.67 132.011,35.3366 131,34.5C 130.754,37.8897 130.254,41.223 129.5,44.5C 124.33,46.7575 120.663,45.4242 118.5,40.5C 119.552,40.3505 120.552,40.5172 121.5,41C 123.01,43.7548 125.343,44.9215 128.5,44.5C 127.426,35.7628 122.426,31.0961 113.5,30.5C 115.322,28.7657 117.655,27.7657 120.5,27.5C 121.386,26.675 121.719,25.675 121.5,24.5 Z"/></g>
<g><path style="opacity:1" fill="#fdf0df" d="M 43.5,48.5 C 41.8361,55.9695 40.1695,63.3028 38.5,70.5C 31.4448,71.0334 24.7781,70.0334 18.5,67.5C 24.7812,68.4659 31.1146,69.1326 37.5,69.5C 37.1667,67.5 36.8333,65.5 36.5,63.5C 37.5,63.5 38.5,63.5 39.5,63.5C 39.4598,58.0022 40.7932,53.0022 43.5,48.5 Z"/></g>
<g><path style="opacity:1" fill="#e49b5b" d="M 71.5,56.5 C 72.7647,57.5145 73.4313,59.0145 73.5,61C 74.0295,67.1386 71.3628,69.8053 65.5,69C 62.3843,66.6 61.0509,63.4334 61.5,59.5C 61.92,56.7214 62.5867,54.0547 63.5,51.5C 65.8568,51.3367 68.1902,51.5034 70.5,52C 71.3802,53.3561 71.7135,54.8561 71.5,56.5 Z"/></g>
<g><path style="opacity:1" fill="#4b2b11" d="M 63.5,62.5 C 65.588,63.9395 67.9214,64.6061 70.5,64.5C 66.9315,68.7579 64.5981,68.0912 63.5,62.5 Z"/></g>
<g><path style="opacity:1" fill="#382f28" d="M 70.5,64.5 C 67.9214,64.6061 65.588,63.9395 63.5,62.5C 62.7731,58.7757 64.1064,56.1091 67.5,54.5C 69.976,57.2827 70.976,60.6161 70.5,64.5 Z"/></g>
<g><path style="opacity:1" fill="#5a3314" d="M 71.5,56.5 C 71.8064,59.3854 71.4731,62.0521 70.5,64.5C 70.976,60.6161 69.976,57.2827 67.5,54.5C 64.1064,56.1091 62.7731,58.7757 63.5,62.5C 61.9463,59.0148 62.6129,55.8482 65.5,53C 68.3305,52.6506 70.3305,53.8173 71.5,56.5 Z"/></g>
<g><path style="opacity:1" fill="#df5747" d="M 18.5,67.5 C 24.7781,70.0334 31.4448,71.0334 38.5,70.5C 39.1667,70.5 39.8333,70.5 40.5,70.5C 38.0221,71.1641 35.3555,71.4975 32.5,71.5C 25.8573,70.6197 19.1906,69.953 12.5,69.5C 13.0634,72.3735 14.0634,75.0402 15.5,77.5C 16.5,77.5 17.5,77.5 18.5,77.5C 18.615,79.9468 19.615,81.9468 21.5,83.5C 14.1351,80.3282 10.8017,74.8282 11.5,67C 13.8848,66.4436 16.2181,66.6103 18.5,67.5 Z"/></g>
<g><path style="opacity:1" fill="#f34e37" d="M 40.5,70.5 C 40.8333,70.5 41.1667,70.5 41.5,70.5C 41.8603,79.6198 44.527,87.9531 49.5,95.5C 45.5234,97.6315 41.19,98.6315 36.5,98.5C 32.614,98.5458 28.9473,97.8791 25.5,96.5C 23.5956,96.2624 22.2623,95.2624 21.5,93.5C 22.075,91.5887 23.075,89.922 24.5,88.5C 25.7562,88.5386 26.7562,88.0386 27.5,87C 25.2726,86.059 23.2726,84.8923 21.5,83.5C 19.615,81.9468 18.615,79.9468 18.5,77.5C 17.5,77.5 16.5,77.5 15.5,77.5C 14.0634,75.0402 13.0634,72.3735 12.5,69.5C 19.1906,69.953 25.8573,70.6197 32.5,71.5C 35.3555,71.4975 38.0221,71.1641 40.5,70.5 Z"/></g>
<g><path style="opacity:1" fill="#fee9c4" d="M 143.5,76.5 C 143.092,81.0385 142.092,85.3718 140.5,89.5C 139.503,89.5299 138.836,89.0299 138.5,88C 139.606,85.511 140.606,83.011 141.5,80.5C 142.167,79.1667 142.833,77.8333 143.5,76.5 Z"/></g>
<g><path style="opacity:1" fill="#d8847a" d="M 24.5,88.5 C 23.075,89.922 22.075,91.5887 21.5,93.5C 20.1789,90.7647 21.1789,89.0981 24.5,88.5 Z"/></g>
<g><path style="opacity:1" fill="#e6aa6f" d="M 210.5,90.5 C 204.365,93.9915 197.698,96.3248 190.5,97.5C 196.913,94.6359 203.58,92.3026 210.5,90.5 Z"/></g>
<g><path style="opacity:1" fill="#eca05a" d="M 141.5,80.5 C 140.606,83.011 139.606,85.511 138.5,88C 138.836,89.0299 139.503,89.5299 140.5,89.5C 146.091,93.2566 152.091,96.2566 158.5,98.5C 155.432,98.4533 152.432,97.9533 149.5,97C 146.624,94.563 143.29,93.2297 139.5,93C 137.513,91.6811 136.346,89.8477 136,87.5C 134.187,88.6091 133.354,87.9424 133.5,85.5C 134.552,85.6495 135.552,85.4828 136.5,85C 137.411,82.5852 139.078,81.0852 141.5,80.5 Z"/></g>
<g><path style="opacity:1" fill="#e06359" d="M 49.5,95.5 C 49.8333,95.5 50.1667,95.5 50.5,95.5C 50.1667,96.1667 49.8333,96.8333 49.5,97.5C 42.7276,100.677 35.7276,101.177 28.5,99C 27.0577,98.6232 26.0577,97.7899 25.5,96.5C 28.9473,97.8791 32.614,98.5458 36.5,98.5C 41.19,98.6315 45.5234,97.6315 49.5,95.5 Z"/></g>
<g><path style="opacity:1" fill="#fcebd0" d="M 140.5,89.5 C 145.225,88.5237 148.892,90.0237 151.5,94C 164.18,98.5457 177.18,99.7124 190.5,97.5C 185.483,99.4027 180.15,100.403 174.5,100.5C 169.065,100.461 163.732,99.7948 158.5,98.5C 152.091,96.2566 146.091,93.2566 140.5,89.5 Z"/></g>
<g><path style="opacity:1" fill="#f1a15c" d="M 67.5,111.5 C 60.8374,108.678 55.5041,104.178 51.5,98C 50.9056,97.5357 50.2389,97.369 49.5,97.5C 49.8333,96.8333 50.1667,96.1667 50.5,95.5C 51.1499,95.1961 51.8165,94.8627 52.5,94.5C 53.2436,95.9905 53.9103,97.4905 54.5,99C 55.549,99.4922 56.549,99.3256 57.5,98.5C 58.1667,100.167 58.8333,101.833 59.5,103.5C 60.7202,102.289 61.8869,102.289 63,103.5C 63.4935,105.134 63.6602,106.801 63.5,108.5C 65.9726,108.088 67.3059,109.088 67.5,111.5 Z"/></g>
<g><path style="opacity:1" fill="#f0a35d" d="M 68.5,112.5 C 71.9586,113.308 75.4586,113.975 79,114.5C 82.4577,113.338 85.9577,112.838 89.5,113C 88.5,113.833 87.5,114.667 86.5,115.5C 88.4346,116.068 89.7679,117.235 90.5,119C 89.7135,121.099 89.3801,123.266 89.5,125.5C 88.5,125.5 87.5,125.5 86.5,125.5C 86.9612,123.45 87.6279,121.45 88.5,119.5C 81.4517,117.907 74.785,115.573 68.5,112.5 Z"/></g>
<g><path style="opacity:1" fill="#e7801f" d="M 120.5,113.5 C 127.243,113.269 133.577,114.769 139.5,118C 148.5,118.667 157.5,118.667 166.5,118C 172.684,115.91 179.018,114.41 185.5,113.5C 185.982,130.774 179.649,144.94 166.5,156C 149.316,165.893 135.149,162.726 124,146.5C 118.329,135.825 117.163,124.825 120.5,113.5 Z"/></g>
<g><path style="opacity:1" fill="#f6dcbd" d="M 222.5,96.5 C 224.189,111.475 223.689,126.475 221,141.5C 220.148,142.571 219.315,143.571 218.5,144.5C 219.974,139.267 221.141,133.934 222,128.5C 222.5,117.839 222.667,107.172 222.5,96.5 Z"/></g>
<g><path style="opacity:1" fill="#e89d5c" d="M 134.5,171.5 C 123.079,160.566 112.079,160.899 101.5,172.5C 101.5,170.833 101.5,169.167 101.5,167.5C 102.833,167.5 104.167,167.5 105.5,167.5C 105.5,166.5 105.5,165.5 105.5,164.5C 112.751,162.442 120.085,162.108 127.5,163.5C 131.898,164.238 134.231,166.904 134.5,171.5 Z"/></g>
<g><path style="opacity:1" fill="#f29d52" d="M 217.5,145.5 C 217.162,147.854 216.662,150.187 216,152.5C 213.888,155.727 212.055,159.06 210.5,162.5C 206.111,165.573 202.111,168.906 198.5,172.5C 197.833,172.167 197.167,171.833 196.5,171.5C 195.7,169.427 194.367,167.76 192.5,166.5C 192.167,165.833 191.833,165.167 191.5,164.5C 194.734,163.424 198.068,162.757 201.5,162.5C 201.5,163.5 201.5,164.5 201.5,165.5C 202.833,165.5 204.167,165.5 205.5,165.5C 205.343,164.127 205.51,162.793 206,161.5C 207,162.833 208,162.833 209,161.5C 210.745,158.156 212.245,154.656 213.5,151C 212.574,147.861 212.408,144.694 213,141.5C 213.98,143.059 214.813,144.726 215.5,146.5C 216.183,146.137 216.85,145.804 217.5,145.5 Z"/></g>
<g><path style="opacity:1" fill="#db9558" d="M 191.5,164.5 C 191.833,165.167 192.167,165.833 192.5,166.5C 186.647,164.601 180.647,164.101 174.5,165C 172.767,166.189 171.1,167.356 169.5,168.5C 166.358,171.302 164.025,174.635 162.5,178.5C 162.357,176.738 162.691,175.071 163.5,173.5C 162.624,172.749 161.624,172.249 160.5,172C 164.931,170.596 168.598,167.929 171.5,164C 178.287,161.976 184.953,162.142 191.5,164.5 Z"/></g>
<g><path style="opacity:1" fill="#4b2a12" d="M 192.5,166.5 C 194.367,167.76 195.7,169.427 196.5,171.5C 193.562,169.088 190.229,167.255 186.5,166C 182.833,165.333 179.167,165.333 175.5,166C 173.842,167.663 171.842,168.496 169.5,168.5C 171.1,167.356 172.767,166.189 174.5,165C 180.647,164.101 186.647,164.601 192.5,166.5 Z"/></g>
<g><path style="opacity:1" fill="#faedda" d="M 210.5,162.5 C 210.5,164.167 210.5,165.833 210.5,167.5C 209.448,167.351 208.448,167.517 207.5,168C 204.595,170.092 201.928,172.259 199.5,174.5C 198.662,174.158 198.328,173.492 198.5,172.5C 202.111,168.906 206.111,165.573 210.5,162.5 Z"/></g>
<g><path style="opacity:1" fill="#e1a86d" d="M 86.5,125.5 C 84.7275,132.215 83.7275,139.049 83.5,146C 82.6612,158.315 86.9946,168.315 96.5,176C 98.4001,175.787 100.067,174.953 101.5,173.5C 100.341,175.855 99.3414,178.188 98.5,180.5C 94.9195,176.416 91.0861,172.416 87,168.5C 79.8708,154.162 79.7041,139.829 86.5,125.5 Z"/></g>
<g><path style="opacity:1" fill="#412f23" d="M 134.5,171.5 C 134.833,172.833 135.167,174.167 135.5,175.5C 134.504,175.586 133.671,175.252 133,174.5C 132.139,177.051 130.972,179.384 129.5,181.5C 128.513,178.232 128.18,174.898 128.5,171.5C 125.679,171.539 123.012,172.205 120.5,173.5C 121.689,174.429 123.022,174.762 124.5,174.5C 124.629,176.216 124.962,177.883 125.5,179.5C 120.128,175.299 115.128,175.633 110.5,180.5C 110.5,178.833 110.5,177.167 110.5,175.5C 112.5,175.5 114.5,175.5 116.5,175.5C 116.5,173.833 116.5,172.167 116.5,170.5C 120.493,171 122.16,169.5 121.5,166C 120.5,165.833 119.5,165.667 118.5,165.5C 115.209,167.721 111.543,168.887 107.5,169C 102.209,173.948 99.5427,180.115 99.5,187.5C 98.5318,185.393 98.1984,183.059 98.5,180.5C 99.3414,178.188 100.341,175.855 101.5,173.5C 101.5,173.167 101.5,172.833 101.5,172.5C 112.079,160.899 123.079,160.566 134.5,171.5 Z"/></g>
<g><path style="opacity:1" fill="#382f2b" d="M 196.5,171.5 C 197.167,171.833 197.833,172.167 198.5,172.5C 198.328,173.492 198.662,174.158 199.5,174.5C 203.769,186.8 200.102,195.967 188.5,202C 176.105,204.805 167.772,200.305 163.5,188.5C 163.672,187.508 163.338,186.842 162.5,186.5C 162.5,184.167 162.5,181.833 162.5,179.5C 162.5,179.167 162.5,178.833 162.5,178.5C 164.025,174.635 166.358,171.302 169.5,168.5C 171.842,168.496 173.842,167.663 175.5,166C 179.167,165.333 182.833,165.333 186.5,166C 190.229,167.255 193.562,169.088 196.5,171.5 Z"/></g>
<g><path style="opacity:1" fill="#382e2b" d="M 110.5,180.5 C 109.523,183.287 109.19,186.287 109.5,189.5C 112.093,190.853 114.927,191.519 118,191.5C 126.888,191.2 129.388,187.2 125.5,179.5C 124.962,177.883 124.629,176.216 124.5,174.5C 123.022,174.762 121.689,174.429 120.5,173.5C 123.012,172.205 125.679,171.539 128.5,171.5C 128.18,174.898 128.513,178.232 129.5,181.5C 130.972,179.384 132.139,177.051 133,174.5C 133.671,175.252 134.504,175.586 135.5,175.5C 136.345,176.671 137.011,178.005 137.5,179.5C 137.5,182.167 137.5,184.833 137.5,187.5C 137.5,187.833 137.5,188.167 137.5,188.5C 130.943,202.767 120.609,206.267 106.5,199C 103.001,195.827 100.667,191.994 99.5,187.5C 99.5427,180.115 102.209,173.948 107.5,169C 111.543,168.887 115.209,167.721 118.5,165.5C 119.5,165.667 120.5,165.833 121.5,166C 122.16,169.5 120.493,171 116.5,170.5C 116.5,172.167 116.5,173.833 116.5,175.5C 114.5,175.5 112.5,175.5 110.5,175.5C 110.5,177.167 110.5,178.833 110.5,180.5 Z"/></g>
<g><path style="opacity:1" fill="#e1995a" d="M 125.5,179.5 C 126.892,188.274 123.226,191.774 114.5,190C 111.38,187.592 110.047,184.426 110.5,180.5C 115.128,175.633 120.128,175.299 125.5,179.5 Z"/></g>
<g><path style="opacity:1" fill="#fa9c45" d="M 113.5,178.5 C 116.448,178.223 119.281,178.556 122,179.5C 122.498,182.482 122.665,185.482 122.5,188.5C 113.797,190.134 110.797,186.801 113.5,178.5 Z"/></g>
<g><path style="opacity:1" fill="#dea16a" d="M 137.5,179.5 C 138.165,181.369 138.831,183.369 139.5,185.5C 146.501,186.763 153.501,186.597 160.5,185C 161.109,183.052 161.776,181.218 162.5,179.5C 162.5,181.833 162.5,184.167 162.5,186.5C 154.2,187.371 145.867,187.705 137.5,187.5C 137.5,184.833 137.5,182.167 137.5,179.5 Z"/></g>
<g><path style="opacity:1" fill="#462d18" d="M 125.5,179.5 C 129.388,187.2 126.888,191.2 118,191.5C 114.927,191.519 112.093,190.853 109.5,189.5C 109.19,186.287 109.523,183.287 110.5,180.5C 110.047,184.426 111.38,187.592 114.5,190C 123.226,191.774 126.892,188.274 125.5,179.5 Z"/></g>
<g><path style="opacity:1" fill="#fdeacd" d="M 162.5,186.5 C 163.338,186.842 163.672,187.508 163.5,188.5C 154.833,188.5 146.167,188.5 137.5,188.5C 137.5,188.167 137.5,187.833 137.5,187.5C 145.867,187.705 154.2,187.371 162.5,186.5 Z"/></g>
<g><path style="opacity:1" fill="#4c2f19" d="M 188.5,178.5 C 191.236,180.858 192.07,183.858 191,187.5C 185.853,192.429 180.353,192.763 174.5,188.5C 173.431,183.844 173.431,179.178 174.5,174.5C 179.167,174.5 183.833,174.5 188.5,174.5C 188.5,175.833 188.5,177.167 188.5,178.5 Z"/></g>
<g><path style="opacity:1" fill="#f09d56" d="M 186.5,177.5 C 187.167,177.833 187.833,178.167 188.5,178.5C 190.645,187.186 187.311,191.019 178.5,190C 174.932,187.423 173.932,184.256 175.5,180.5C 175.426,184.158 176.926,186.825 180,188.5C 181.713,187.863 181.879,186.863 180.5,185.5C 182.135,184.319 183.802,184.319 185.5,185.5C 186.48,182.914 186.813,180.247 186.5,177.5 Z"/></g>
<g><path style="opacity:1" fill="#f99c46" d="M 186.5,177.5 C 186.813,180.247 186.48,182.914 185.5,185.5C 183.802,184.319 182.135,184.319 180.5,185.5C 181.879,186.863 181.713,187.863 180,188.5C 176.926,186.825 175.426,184.158 175.5,180.5C 176.995,180.585 177.995,179.919 178.5,178.5C 181.086,177.52 183.753,177.187 186.5,177.5 Z"/></g>
<g><path style="opacity:1" fill="#d4975b" d="M 186.5,177.5 C 183.753,177.187 181.086,177.52 178.5,178.5C 177.995,179.919 176.995,180.585 175.5,180.5C 175.511,178.983 176.177,177.816 177.5,177C 180.696,176.195 183.696,176.362 186.5,177.5 Z"/></g>
</svg>
