<?xml version="1.0" standalone="no"?>
<!DOCTYPE svg PUBLIC "-//W3C//DTD SVG 20010904//EN"
 "http://www.w3.org/TR/2001/REC-SVG-20010904/DTD/svg10.dtd">
<svg version="1.0" xmlns="http://www.w3.org/2000/svg"
 width="900.000000pt" height="651.000000pt" viewBox="0 0 900.000000 651.000000"
 preserveAspectRatio="xMidYMid meet">

<g transform="translate(0.000000,651.000000) scale(0.100000,-0.100000)"
fill="#000000" stroke="none">
<path d="M3805 6500 c-10 -16 -73 -371 -104 -588 -50 -342 -101 -840 -101
-991 0 -43 -3 -48 -43 -76 -23 -16 -70 -53 -104 -82 l-62 -52 -133 80 c-234
142 -741 379 -812 379 -13 0 -27 -7 -30 -16 -3 -8 3 -77 15 -152 58 -389 150
-752 278 -1110 l40 -113 -37 -75 c-27 -56 -41 -74 -57 -74 -11 0 -162 27 -335
59 -209 38 -321 55 -332 49 -10 -5 -18 -19 -18 -32 0 -56 143 -502 251 -780
l23 -59 -30 -24 c-117 -98 -228 -140 -339 -130 -171 16 -271 146 -324 420 -63
324 -47 647 49 1022 21 83 61 238 88 345 77 301 87 364 87 595 0 158 -4 218
-19 284 -102 468 -370 774 -774 883 -102 28 -324 30 -426 5 -215 -54 -387
-188 -476 -372 -51 -106 -70 -179 -76 -300 -7 -127 11 -221 66 -331 86 -175
169 -236 535 -390 188 -78 283 -152 335 -257 76 -154 42 -313 -127 -608 -181
-314 -280 -582 -330 -899 -25 -159 -25 -551 0 -695 49 -281 133 -510 263 -718
244 -393 611 -606 1174 -681 98 -14 437 -46 477 -46 10 0 13 -64 13 -319 l0
-319 26 -31 26 -31 234 0 c234 0 234 0 243 23 11 30 31 359 31 519 l0 127 108
-5 c59 -3 144 -6 190 -8 45 -2 85 -5 87 -7 2 -3 -1 -36 -6 -74 -14 -105 -23
-491 -14 -649 6 -113 10 -141 25 -156 25 -25 121 -35 330 -34 179 1 352 22
377 47 7 8 25 171 48 432 20 230 37 420 38 421 1 1 266 4 590 6 l587 3 0 -195
c0 -253 16 -470 36 -490 12 -13 55 -15 257 -15 243 0 380 13 404 38 7 8 17
118 27 302 9 160 19 313 22 341 l5 51 190 7 c105 4 193 5 195 3 3 -3 10 -117
15 -253 6 -139 15 -253 20 -259 14 -13 345 -11 429 3 108 19 106 15 115 304
l7 244 257 17 c605 40 702 102 1001 637 133 237 343 665 450 917 93 217 240
596 240 619 0 23 -29 38 -53 27 -34 -16 -281 -205 -712 -543 -487 -382 -633
-492 -644 -486 -5 3 -12 23 -16 43 -23 124 -154 538 -243 767 l-46 119 277
271 c153 149 277 276 277 283 0 6 -8 19 -17 29 -16 16 -38 17 -258 11 -212 -6
-301 -11 -501 -32 l-51 -5 -82 129 c-44 71 -81 132 -81 136 0 24 378 591 564
845 58 80 105 151 103 159 -6 36 -33 36 -179 2 -292 -68 -689 -192 -966 -302
l-123 -49 -58 49 c-33 26 -68 55 -80 63 -21 15 -21 16 -6 119 81 553 123 1026
128 1434 l2 210 -26 0 c-22 0 -117 -102 -605 -648 -569 -638 -579 -649 -609
-642 -16 4 -131 10 -254 14 l-225 6 -24 60 c-92 233 -271 610 -408 860 -94
171 -201 354 -222 378 -16 18 -47 23 -57 7z m194 -384 c148 -265 455 -916 440
-931 -2 -2 -47 -10 -99 -19 -52 -9 -128 -26 -169 -37 -40 -11 -76 -18 -78 -15
-15 15 -129 671 -163 941 -11 88 -23 175 -26 193 -2 17 -3 32 0 32 2 0 45 -74
95 -164z m-155 43 c17 -182 80 -581 142 -893 19 -98 34 -179 32 -180 -2 -2
-41 -17 -88 -35 -47 -18 -122 -53 -167 -77 -46 -24 -85 -44 -88 -44 -2 0 -3
19 0 43 2 23 9 110 15 192 26 355 120 1065 141 1065 3 0 9 -32 13 -71z m2312
-96 c-8 -192 -29 -472 -52 -683 -14 -132 -59 -487 -69 -535 -2 -11 -4 -32 -4
-47 -1 -16 -5 -28 -11 -28 -5 0 -49 26 -97 57 -48 32 -147 87 -219 123 l-131
66 291 607 c160 333 293 607 295 607 2 0 1 -75 -3 -167z m-5216 132 c316 -66
575 -313 699 -667 52 -149 66 -242 65 -438 -1 -194 -20 -320 -89 -580 -161
-612 -169 -658 -169 -965 -1 -171 4 -257 16 -335 49 -301 126 -453 265 -528
171 -91 382 -42 553 127 113 113 181 226 396 659 267 542 353 694 504 897 327
439 764 690 1299 746 153 16 413 7 566 -20 625 -109 1204 -488 1647 -1078 149
-199 266 -391 393 -648 127 -256 199 -432 287 -700 55 -168 158 -533 158 -562
0 -7 9 -17 20 -23 17 -9 29 -5 73 26 105 76 349 264 622 479 460 362 625 488
631 482 6 -6 -120 -328 -211 -537 -137 -316 -393 -815 -550 -1070 -83 -134
-179 -229 -287 -280 -119 -57 -227 -77 -526 -96 l-253 -15 -113 108 c-352 338
-828 618 -1286 756 -416 126 -803 161 -1230 111 -703 -81 -1355 -393 -1870
-893 l-115 -111 -135 10 c-591 45 -913 136 -1176 334 -92 69 -223 211 -297
322 -280 422 -368 1028 -230 1594 52 213 127 394 290 694 150 275 190 443 144
594 -27 90 -91 177 -173 235 -77 55 -117 75 -283 144 -72 30 -147 62 -167 70
-21 9 -38 19 -38 23 0 3 20 16 44 27 72 36 161 126 201 205 38 77 46 135 19
145 -27 10 -46 -10 -65 -65 -35 -104 -104 -178 -216 -234 l-62 -30 -40 31
c-22 18 -58 59 -80 92 -157 235 -119 579 89 790 163 165 414 229 680 174z
m5076 -87 c-86 -181 -444 -925 -481 -998 l-34 -67 -93 32 c-51 18 -137 43
-191 56 -53 12 -96 26 -95 30 4 9 939 1059 944 1059 2 0 -21 -51 -50 -112z
m-3276 -1128 c170 -74 568 -292 585 -320 3 -5 -24 -41 -59 -80 -36 -39 -86
-98 -112 -130 -26 -33 -50 -60 -54 -60 -7 0 -172 191 -306 355 -75 92 -122
152 -237 303 -11 15 33 -2 183 -68z m-58 -212 c65 -81 176 -215 247 -298 l129
-150 -49 -75 c-28 -42 -86 -141 -131 -221 -57 -102 -83 -142 -90 -132 -20 31
-133 400 -178 583 -47 189 -101 456 -100 493 1 12 9 6 28 -18 15 -19 80 -101
144 -182z m4413 -48 c-187 -125 -451 -311 -525 -372 l-35 -28 -107 107 c-126
126 -137 104 86 187 166 63 369 129 536 176 63 18 135 38 160 45 25 8 53 14
63 14 10 1 -70 -58 -178 -129z m219 48 c-5 -7 -42 -60 -83 -118 -77 -109 -315
-464 -389 -583 l-43 -68 -56 73 c-31 40 -80 100 -109 134 l-53 61 157 116
c129 95 569 396 580 397 2 0 0 -6 -4 -12z m-4911 -1169 c122 -22 224 -42 226
-45 5 -4 -100 -224 -107 -224 -1 0 -47 39 -100 87 -53 47 -137 117 -185 155
-49 37 -81 68 -72 68 9 0 117 -18 238 -41z m4997 -60 c-107 -50 -209 -96 -225
-103 l-30 -13 -47 88 -47 88 32 6 c57 10 259 22 387 23 l125 2 -195 -91z
m-5194 -37 c67 -53 158 -131 203 -172 l81 -75 -63 -112 c-34 -61 -77 -133 -96
-160 l-34 -48 -37 95 c-43 111 -116 326 -155 455 -15 50 -30 96 -32 103 -10
25 15 9 133 -86z m5249 -122 c-104 -104 -193 -190 -196 -190 -7 0 -81 161 -76
166 4 4 449 212 457 213 3 1 -81 -84 -185 -189z m-2270 -1418 c361 -56 729
-180 1029 -347 124 -70 357 -224 451 -300 115 -92 275 -235 275 -245 0 -6 -8
-10 -17 -10 -10 0 -191 -9 -403 -20 -1419 -72 -2559 -79 -3640 -24 -179 9
-327 18 -329 21 -7 6 94 106 194 193 481 416 1089 679 1730 750 140 15 563 5
710 -18z m1792 -1039 c-4 -38 -7 -107 -7 -156 l0 -87 -207 2 -208 3 -3 143 -3
142 53 1 c29 1 100 5 158 9 58 3 132 7 164 8 l59 2 -6 -67z m-4238 27 c79 -5
148 -13 154 -19 5 -5 6 -82 2 -200 l-8 -191 -203 0 -204 0 0 210 0 210 58 0
c31 0 122 -5 201 -10z m3260 -72 c-1 -35 -6 -142 -12 -238 l-12 -175 -281 -3
-281 -2 -7 61 c-3 34 -6 138 -6 230 l0 169 33 1 c17 1 113 5 212 8 99 4 219 8
268 9 l87 2 -1 -62z m-1923 28 c1 0 -10 -137 -24 -303 l-26 -303 -313 0 -313
0 0 138 c0 131 12 333 26 434 l6 47 321 -6 c177 -3 323 -6 323 -7z m2894 -330
c0 -56 -12 -59 -221 -64 l-189 -5 0 52 0 51 205 0 205 0 0 -34z m-4092 -171
l-3 -60 -189 -3 c-145 -2 -191 1 -198 10 -4 7 -8 34 -8 60 l0 47 153 3 c83 2
174 3 200 3 l48 0 -3 -60z m3090 -57 l-3 -43 -60 -9 c-64 -9 -470 -14 -478 -6
-2 3 -7 26 -9 53 l-6 47 280 0 279 0 -3 -42z m-1954 -180 c-4 -29 -12 -56 -17
-60 -43 -28 -453 -43 -547 -21 -35 9 -35 9 -38 71 l-3 62 306 0 306 0 -7 -52z"/>
<path d="M827 5739 c-21 -12 -47 -61 -47 -89 0 -35 27 -76 59 -90 84 -34 165
51 126 133 -24 51 -91 73 -138 46z"/>
<path d="M1054 5400 c-104 -22 -148 -62 -128 -117 13 -37 57 -60 140 -73 117
-18 226 7 267 61 17 24 18 30 6 55 -28 58 -176 97 -285 74z"/>
<path d="M4284 4955 c-149 -32 -322 -164 -386 -292 -59 -120 -40 -268 46 -370
43 -51 118 -83 195 -83 72 0 104 9 262 69 177 68 213 66 418 -16 141 -57 207
-61 287 -20 99 50 149 145 142 270 -8 174 -141 315 -368 391 -179 60 -450 83
-596 51z"/>
<path d="M5601 4689 c-132 -53 -190 -221 -142 -410 42 -159 176 -411 276 -514
86 -88 171 -128 273 -129 86 0 136 19 191 75 49 48 65 87 66 155 0 91 -33 138
-173 244 -152 115 -162 131 -172 268 -5 60 -15 125 -24 145 -19 48 -100 134
-148 158 -39 20 -107 24 -147 8z"/>
<path d="M3395 4322 c-111 -38 -213 -123 -263 -217 -21 -41 -26 -63 -26 -120
1 -59 7 -84 41 -160 108 -246 210 -358 339 -373 66 -7 112 6 154 44 72 66 75
127 13 272 -45 104 -46 140 -5 259 48 137 40 197 -31 260 -61 54 -135 65 -222
35z"/>
<path d="M4873 4105 c-87 -24 -134 -54 -214 -134 -88 -88 -114 -144 -113 -251
0 -83 28 -145 91 -200 63 -55 119 -70 233 -63 l90 6 62 -48 c74 -57 114 -75
170 -75 88 1 189 72 232 165 107 225 -11 484 -266 586 -69 28 -211 35 -285 14z"/>
<path d="M3950 4058 c-19 -13 -45 -45 -59 -73 -22 -41 -26 -63 -26 -130 0
-250 208 -405 347 -258 90 95 91 271 3 388 -67 87 -193 121 -265 73z"/>
<path d="M6466 3795 c-28 -30 -66 -170 -66 -239 0 -100 69 -185 165 -207 119
-26 218 51 219 170 0 68 -25 128 -83 193 -91 103 -186 136 -235 83z"/>
<path d="M2874 3452 c-57 -27 -104 -87 -144 -184 -80 -191 -40 -340 95 -355
149 -17 257 131 259 357 1 84 -20 140 -65 173 -38 27 -96 31 -145 9z"/>
<path d="M5769 3407 c-52 -28 -79 -65 -103 -141 -23 -74 -15 -119 30 -164 35
-35 35 -35 97 -27 77 10 90 10 202 0 105 -9 144 4 171 57 33 63 -5 147 -100
218 -106 80 -213 101 -297 57z"/>
<path d="M4255 3393 c-52 -13 -87 -39 -112 -80 -23 -40 -25 -50 -18 -115 7
-76 29 -130 65 -163 17 -16 36 -20 89 -20 74 0 110 18 158 82 38 49 44 142 14
201 -35 68 -128 113 -196 95z"/>
</g>
</svg>
