<?xml version="1.0" encoding="UTF-8"?>
<!DOCTYPE svg PUBLIC "-//W3C//DTD SVG 1.1//EN" "http://www.w3.org/Graphics/SVG/1.1/DTD/svg11.dtd">
<svg xmlns="http://www.w3.org/2000/svg" version="1.1" width="184px" height="232px" style="shape-rendering:geometricPrecision; text-rendering:geometricPrecision; image-rendering:optimizeQuality; fill-rule:evenodd; clip-rule:evenodd" xmlns:xlink="http://www.w3.org/1999/xlink">
<g><path style="opacity:1" fill="#fdfdfd" d="M -0.5,-0.5 C 60.8333,-0.5 122.167,-0.5 183.5,-0.5C 183.5,76.8333 183.5,154.167 183.5,231.5C 122.167,231.5 60.8333,231.5 -0.5,231.5C -0.5,154.167 -0.5,76.8333 -0.5,-0.5 Z"/></g>
<g><path style="opacity:1" fill="#def2f0" d="M 82.5,9.5 C 69.6742,15.6027 65.3408,25.6027 69.5,39.5C 64.056,28.1393 66.056,18.6393 75.5,11C 77.6775,9.79777 80.0108,9.29777 82.5,9.5 Z"/></g>
<g><path style="opacity:1" fill="#36837a" d="M 82.5,9.5 C 94.3137,7.19539 102.98,11.1954 108.5,21.5C 108.289,26.3087 108.122,31.3087 108,36.5C 107.059,38.7721 105.726,40.7721 104,42.5C 103.667,42.1667 103.333,41.8333 103,41.5C 102.51,42.7932 102.343,44.1266 102.5,45.5C 99.5178,45.1044 96.8511,45.7711 94.5,47.5C 93.5614,51.7649 93.2281,56.0983 93.5,60.5C 90.4281,60.8174 87.4281,60.4841 84.5,59.5C 87.5514,50.9352 84.5514,46.2685 75.5,45.5C 73.1394,43.8061 71.1394,41.8061 69.5,39.5C 65.3408,25.6027 69.6742,15.6027 82.5,9.5 Z"/></g>
<g><path style="opacity:1" fill="#3fb39e" d="M 95.5,14.5 C 102.659,14.9767 105.659,18.6434 104.5,25.5C 102.389,26.8485 100.555,26.5152 99,24.5C 98.0467,22.5448 96.7134,20.8782 95,19.5C 94.3603,17.735 94.5269,16.0683 95.5,14.5 Z"/></g>
<g><path style="opacity:1" fill="#def1f0" d="M 109.5,37.5 C 109.297,41.9001 107.463,45.5667 104,48.5C 97.2401,49.6669 95.0735,53.5002 97.5,60C 96.5842,60.2784 95.9175,60.7784 95.5,61.5C 95.1667,61.5 94.8333,61.5 94.5,61.5C 94.5,57.8333 94.5,54.1667 94.5,50.5C 101.669,48.6644 106.669,44.3311 109.5,37.5 Z"/></g>
<g><path style="opacity:1" fill="#487d76" d="M 108.5,21.5 C 110.792,26.6413 111.125,31.9747 109.5,37.5C 106.669,44.3311 101.669,48.6644 94.5,50.5C 94.5,54.1667 94.5,57.8333 94.5,61.5C 90.8333,61.5 87.1667,61.5 83.5,61.5C 83.8226,57.774 83.4892,54.1073 82.5,50.5C 79.57,49.5469 77.2367,47.8802 75.5,45.5C 84.5514,46.2685 87.5514,50.9352 84.5,59.5C 87.4281,60.4841 90.4281,60.8174 93.5,60.5C 93.2281,56.0983 93.5614,51.7649 94.5,47.5C 96.8511,45.7711 99.5178,45.1044 102.5,45.5C 102.343,44.1266 102.51,42.7932 103,41.5C 103.333,41.8333 103.667,42.1667 104,42.5C 105.726,40.7721 107.059,38.7721 108,36.5C 108.122,31.3087 108.289,26.3087 108.5,21.5 Z"/></g>
<g><path style="opacity:1" fill="#e3503b" d="M 50.5,62.5 C 64.8333,62.5 79.1667,62.5 93.5,62.5C 93.3893,63.1174 93.056,63.6174 92.5,64C 84.0182,63.9864 75.5182,63.8198 67,63.5C 59.3667,63.2626 51.8667,63.9292 44.5,65.5C 45.6874,63.0246 47.6874,62.0246 50.5,62.5 Z"/></g>
<g><path style="opacity:1" fill="#d26c5a" d="M 128.5,62.5 C 132.837,63.1628 135.837,65.4962 137.5,69.5C 136.5,68.8333 135.5,68.1667 134.5,67.5C 132.5,65.8333 130.5,64.1667 128.5,62.5 Z"/></g>
<g><path style="opacity:1" fill="#e65f4a" d="M 50.5,62.5 C 61.3206,61.5054 72.3206,61.1721 83.5,61.5C 87.1667,61.5 90.8333,61.5 94.5,61.5C 94.8333,61.5 95.1667,61.5 95.5,61.5C 106.679,61.1721 117.679,61.5054 128.5,62.5C 130.5,64.1667 132.5,65.8333 134.5,67.5C 133.325,67.281 132.325,67.6143 131.5,68.5C 132.882,71.1922 133.882,74.0255 134.5,77C 132.338,81.6372 129.004,82.6372 124.5,80C 123.62,78.6439 123.286,77.1439 123.5,75.5C 124.837,76.3149 125.837,77.4815 126.5,79C 132.08,80.261 133.913,78.0943 132,72.5C 130.337,70.0833 128.171,68.25 125.5,67C 123.505,66.3872 121.838,66.8872 120.5,68.5C 121.038,66.8828 121.371,65.2161 121.5,63.5C 112.139,63.6871 102.805,63.3538 93.5,62.5C 79.1667,62.5 64.8333,62.5 50.5,62.5 Z"/></g>
<g><path style="opacity:1" fill="#f54d38" d="M 93.5,62.5 C 102.805,63.3538 112.139,63.6871 121.5,63.5C 121.371,65.2161 121.038,66.8828 120.5,68.5C 118.944,71.6876 119.944,74.021 123.5,75.5C 123.286,77.1439 123.62,78.6439 124.5,80C 129.004,82.6372 132.338,81.6372 134.5,77C 133.882,74.0255 132.882,71.1922 131.5,68.5C 132.325,67.6143 133.325,67.281 134.5,67.5C 135.5,68.1667 136.5,68.8333 137.5,69.5C 138.338,69.8417 138.672,70.5084 138.5,71.5C 138.5,75.5 138.5,79.5 138.5,83.5C 138.672,84.4916 138.338,85.1583 137.5,85.5C 135.15,86.9598 132.816,88.6265 130.5,90.5C 129.264,91.2458 127.93,91.5792 126.5,91.5C 100.831,91.6666 75.1645,91.5 49.5,91C 40.872,86.7951 38.0387,79.9618 41,70.5C 42.6692,69.1537 43.8358,67.487 44.5,65.5C 51.8667,63.9292 59.3667,63.2626 67,63.5C 75.5182,63.8198 84.0182,63.9864 92.5,64C 93.056,63.6174 93.3893,63.1174 93.5,62.5 Z"/></g>
<g><path style="opacity:1" fill="#fcdbb9" d="M 123.5,75.5 C 119.944,74.021 118.944,71.6876 120.5,68.5C 121.838,66.8872 123.505,66.3872 125.5,67C 128.171,68.25 130.337,70.0833 132,72.5C 133.913,78.0943 132.08,80.261 126.5,79C 125.837,77.4815 124.837,76.3149 123.5,75.5 Z"/></g>
<g><path style="opacity:1" fill="#fdf3e7" d="M 40.5,68.5 C 37.2288,76.1269 38.2288,83.1269 43.5,89.5C 40.6748,89.8384 38.5082,88.8384 37,86.5C 36.3333,81.1667 36.3333,75.8333 37,70.5C 37.8159,69.1772 38.9826,68.5106 40.5,68.5 Z"/></g>
<g><path style="opacity:1" fill="#de6a63" d="M 138.5,71.5 C 141.079,75.4697 141.079,79.4697 138.5,83.5C 138.5,79.5 138.5,75.5 138.5,71.5 Z"/></g>
<g><path style="opacity:1" fill="#e15240" d="M 44.5,65.5 C 43.8358,67.487 42.6692,69.1537 41,70.5C 38.0387,79.9618 40.872,86.7951 49.5,91C 75.1645,91.5 100.831,91.6666 126.5,91.5C 101.339,92.4977 76.0055,92.8311 50.5,92.5C 49.8333,92.5 49.1667,92.5 48.5,92.5C 46.6675,91.7515 45.0009,90.7515 43.5,89.5C 38.2288,83.1269 37.2288,76.1269 40.5,68.5C 41.6366,67.2112 42.9699,66.2112 44.5,65.5 Z"/></g>
<g><path style="opacity:1" fill="#e4725e" d="M 137.5,85.5 C 136.138,88.8616 133.805,91.1949 130.5,92.5C 118.884,93.458 107.217,93.7913 95.5,93.5C 95.1667,93.5 94.8333,93.5 94.5,93.5C 90.8333,93.5 87.1667,93.5 83.5,93.5C 72.3206,93.8279 61.3206,93.4946 50.5,92.5C 76.0055,92.8311 101.339,92.4977 126.5,91.5C 127.93,91.5792 129.264,91.2458 130.5,90.5C 132.816,88.6265 135.15,86.9598 137.5,85.5 Z"/></g>
<g><path style="opacity:1" fill="#f9debc" d="M 48.5,92.5 C 49.1667,92.5 49.8333,92.5 50.5,92.5C 61.3206,93.4946 72.3206,93.8279 83.5,93.5C 83.5,94.1667 83.5,94.8333 83.5,95.5C 71.1667,95.5 58.8333,95.5 46.5,95.5C 47.5511,94.7777 48.2178,93.7777 48.5,92.5 Z"/></g>
<g><path style="opacity:1" fill="#ffefd3" d="M 130.5,92.5 C 131.263,93.2679 132.263,93.7679 133.5,94C 134.252,94.6708 134.586,95.5041 134.5,96.5C 133.167,96.1667 131.833,95.8333 130.5,95.5C 118.833,94.8333 107.167,94.1667 95.5,93.5C 107.217,93.7913 118.884,93.458 130.5,92.5 Z"/></g>
<g><path style="opacity:1" fill="#98835b" d="M 83.5,93.5 C 87.1667,93.5 90.8333,93.5 94.5,93.5C 94.5,94.1667 94.5,94.8333 94.5,95.5C 90.8333,95.5 87.1667,95.5 83.5,95.5C 83.5,94.8333 83.5,94.1667 83.5,93.5 Z"/></g>
<g><path style="opacity:1" fill="#eac095" d="M 94.5,93.5 C 94.8333,93.5 95.1667,93.5 95.5,93.5C 107.167,94.1667 118.833,94.8333 130.5,95.5C 118.5,95.5 106.5,95.5 94.5,95.5C 94.5,94.8333 94.5,94.1667 94.5,93.5 Z"/></g>
<g><path style="opacity:1" fill="#eba15f" d="M 44.5,96.5 C 44.8417,95.6618 45.5084,95.3284 46.5,95.5C 58.8333,95.5 71.1667,95.5 83.5,95.5C 87.1667,95.5 90.8333,95.5 94.5,95.5C 106.5,95.5 118.5,95.5 130.5,95.5C 131.833,95.8333 133.167,96.1667 134.5,96.5C 135.514,97.6737 136.847,98.3404 138.5,98.5C 144.66,105.934 144.994,113.6 139.5,121.5C 138.5,122.167 137.5,122.833 136.5,123.5C 138.684,119.998 140.35,116.164 141.5,112C 141.082,107.888 139.916,104.054 138,100.5C 136.274,99.4238 134.441,99.2571 132.5,100C 133.582,101.33 134.249,102.83 134.5,104.5C 132.132,101.647 129.132,100.481 125.5,101C 123.011,103.434 123.011,105.934 125.5,108.5C 123.876,108.64 122.71,107.973 122,106.5C 121.503,104.19 121.337,101.857 121.5,99.5C 124.813,98.9552 128.146,98.4552 131.5,98C 131.167,97.6667 130.833,97.3333 130.5,97C 101.835,96.5 73.1686,96.3334 44.5,96.5 Z"/></g>
<g><path style="opacity:1" fill="#fb9b47" d="M 44.5,96.5 C 73.1686,96.3334 101.835,96.5 130.5,97C 130.833,97.3333 131.167,97.6667 131.5,98C 128.146,98.4552 124.813,98.9552 121.5,99.5C 121.337,101.857 121.503,104.19 122,106.5C 122.71,107.973 123.876,108.64 125.5,108.5C 127.25,109.742 128.917,111.242 130.5,113C 136.519,112.445 137.853,109.612 134.5,104.5C 134.249,102.83 133.582,101.33 132.5,100C 134.441,99.2571 136.274,99.4238 138,100.5C 139.916,104.054 141.082,107.888 141.5,112C 140.35,116.164 138.684,119.998 136.5,123.5C 136.167,123.5 135.833,123.5 135.5,123.5C 105.191,124.81 74.8575,124.81 44.5,123.5C 44.1667,122.833 43.8333,122.167 43.5,121.5C 46.2856,118.644 46.1189,115.978 43,113.5C 42.6667,115.167 42.3333,116.833 42,118.5C 40.9887,119.337 39.8221,119.67 38.5,119.5C 38.3339,113.824 38.5006,108.157 39,102.5C 41.0396,100.63 42.8729,98.6298 44.5,96.5 Z"/></g>
<g><path style="opacity:1" fill="#fff4de" d="M 35.5,104.5 C 35.3347,108.182 35.5014,111.848 36,115.5C 36.2004,117.32 37.0337,118.653 38.5,119.5C 40.1667,122.5 42.5,124.833 45.5,126.5C 43.7376,126.643 42.0709,126.309 40.5,125.5C 38.527,122.36 36.3603,119.36 34,116.5C 33.8333,114.5 33.6667,112.5 33.5,110.5C 33.5391,108.048 34.2057,106.048 35.5,104.5 Z"/></g>
<g><path style="opacity:1" fill="#fddeb8" d="M 134.5,104.5 C 137.853,109.612 136.519,112.445 130.5,113C 128.917,111.242 127.25,109.742 125.5,108.5C 123.011,105.934 123.011,103.434 125.5,101C 129.132,100.481 132.132,101.647 134.5,104.5 Z"/></g>
<g><path style="opacity:1" fill="#fff6e1" d="M 138.5,98.5 C 141.434,99.2894 143.268,101.289 144,104.5C 144.826,109.589 144.492,114.589 143,119.5C 142.184,120.823 141.017,121.489 139.5,121.5C 144.994,113.6 144.66,105.934 138.5,98.5 Z"/></g>
<g><path style="opacity:1" fill="#e9a05f" d="M 44.5,96.5 C 42.8729,98.6298 41.0396,100.63 39,102.5C 38.5006,108.157 38.3339,113.824 38.5,119.5C 37.0337,118.653 36.2004,117.32 36,115.5C 35.5014,111.848 35.3347,108.182 35.5,104.5C 37.8739,101.126 40.8739,98.4593 44.5,96.5 Z"/></g>
<g><path style="opacity:1" fill="#eba059" d="M 135.5,123.5 C 134.158,124.793 132.491,125.626 130.5,126C 118.505,126.5 106.505,126.667 94.5,126.5C 90.8333,126.5 87.1667,126.5 83.5,126.5C 70.8333,126.5 58.1667,126.5 45.5,126.5C 42.5,124.833 40.1667,122.5 38.5,119.5C 39.8221,119.67 40.9887,119.337 42,118.5C 42.3333,116.833 42.6667,115.167 43,113.5C 46.1189,115.978 46.2856,118.644 43.5,121.5C 43.8333,122.167 44.1667,122.833 44.5,123.5C 74.8575,124.81 105.191,124.81 135.5,123.5 Z"/></g>
<g><path style="opacity:1" fill="#3bb69e" d="M 39.5,129.5 C 40.5,129.5 41.5,129.5 42.5,129.5C 57.4314,129.619 72.2647,129.619 87,129.5C 93.3468,131.594 99.8468,131.928 106.5,130.5C 109.956,130.68 113.289,131.347 116.5,132.5C 118.75,131.541 121.084,130.875 123.5,130.5C 127.881,130.68 128.381,132.013 125,134.5C 123.015,140.038 124.848,143.038 130.5,143.5C 131.167,143.833 131.833,144.167 132.5,144.5C 132.5,144.833 132.5,145.167 132.5,145.5C 132.5,145.833 132.5,146.167 132.5,146.5C 136.316,148.351 139.316,147.351 141.5,143.5C 144.7,145.296 145.2,147.629 143,150.5C 142.481,149.484 141.647,148.818 140.5,148.5C 137.79,149.515 135.457,151.015 133.5,153C 135.769,153.758 137.936,153.591 140,152.5C 140.483,153.448 140.649,154.448 140.5,155.5C 136.513,156.705 132.513,156.705 128.5,155.5C 128.5,156.5 128.5,157.5 128.5,158.5C 118.319,158.173 108.319,158.506 98.5,159.5C 96.5168,159.157 95.1834,159.824 94.5,161.5C 90.8333,161.5 87.1667,161.5 83.5,161.5C 83.6716,160.508 83.3382,159.842 82.5,159.5C 69.6731,158.669 56.6731,158.169 43.5,158C 41.9194,157.293 40.4194,156.46 39,155.5C 38.6966,153.112 37.8633,150.945 36.5,149C 35.552,148.517 34.552,148.351 33.5,148.5C 32.3567,145.024 32.1901,141.358 33,137.5C 35.0007,134.669 37.1673,132.003 39.5,129.5 Z"/></g>
<g><path style="opacity:1" fill="#d8f7f4" d="M 39.5,129.5 C 37.1673,132.003 35.0007,134.669 33,137.5C 32.1901,141.358 32.3567,145.024 33.5,148.5C 33.6287,150.216 33.962,151.883 34.5,153.5C 32.4119,152.065 31.0786,150.065 30.5,147.5C 31.1317,143.183 31.6317,138.85 32,134.5C 34.1121,132.198 36.6121,130.531 39.5,129.5 Z"/></g>
<g><path style="opacity:1" fill="#d8eacb" d="M 132.5,146.5 C 132.5,146.167 132.5,145.833 132.5,145.5C 137.914,145.079 138.914,142.579 135.5,138C 133.235,136.882 130.901,136.049 128.5,135.5C 128.343,136.873 128.51,138.207 129,139.5C 131.158,140.489 132.325,142.156 132.5,144.5C 131.833,144.167 131.167,143.833 130.5,143.5C 129.542,142.038 128.376,140.705 127,139.5C 125.5,134.333 127.333,132.5 132.5,134C 137.385,135.954 139.552,139.454 139,144.5C 137.211,146.229 135.044,146.896 132.5,146.5 Z"/></g>
<g><path style="opacity:1" fill="#fae0be" d="M 132.5,145.5 C 132.5,145.167 132.5,144.833 132.5,144.5C 132.325,142.156 131.158,140.489 129,139.5C 128.51,138.207 128.343,136.873 128.5,135.5C 130.901,136.049 133.235,136.882 135.5,138C 138.914,142.579 137.914,145.079 132.5,145.5 Z"/></g>
<g><path style="opacity:1" fill="#4dae9a" d="M 83.5,126.5 C 87.1667,126.5 90.8333,126.5 94.5,126.5C 94.6107,127.117 94.944,127.617 95.5,128C 108.5,128.333 121.5,128.667 134.5,129C 147.535,134.67 150.035,143.503 142,155.5C 140.167,156.667 138.333,157.833 136.5,159C 123.838,159.5 111.171,159.667 98.5,159.5C 108.319,158.506 118.319,158.173 128.5,158.5C 128.5,157.5 128.5,156.5 128.5,155.5C 132.513,156.705 136.513,156.705 140.5,155.5C 140.649,154.448 140.483,153.448 140,152.5C 137.936,153.591 135.769,153.758 133.5,153C 135.457,151.015 137.79,149.515 140.5,148.5C 141.647,148.818 142.481,149.484 143,150.5C 145.2,147.629 144.7,145.296 141.5,143.5C 139.316,147.351 136.316,148.351 132.5,146.5C 135.044,146.896 137.211,146.229 139,144.5C 139.552,139.454 137.385,135.954 132.5,134C 127.333,132.5 125.5,134.333 127,139.5C 128.376,140.705 129.542,142.038 130.5,143.5C 124.848,143.038 123.015,140.038 125,134.5C 128.381,132.013 127.881,130.68 123.5,130.5C 121.084,130.875 118.75,131.541 116.5,132.5C 113.289,131.347 109.956,130.68 106.5,130.5C 99.8468,131.928 93.3468,131.594 87,129.5C 72.2647,129.619 57.4314,129.619 42.5,129.5C 56.3639,129.161 70.0305,128.161 83.5,126.5 Z"/></g>
<g><path style="opacity:1" fill="#4ba998" d="M 33.5,148.5 C 34.552,148.351 35.552,148.517 36.5,149C 37.8633,150.945 38.6966,153.112 39,155.5C 40.4194,156.46 41.9194,157.293 43.5,158C 56.6731,158.169 69.6731,158.669 82.5,159.5C 69.1625,159.667 55.8292,159.5 42.5,159C 39.4241,157.757 36.7574,155.923 34.5,153.5C 33.962,151.883 33.6287,150.216 33.5,148.5 Z"/></g>
<g><path style="opacity:1" fill="#d16452" d="M 83.5,161.5 C 87.1667,161.5 90.8333,161.5 94.5,161.5C 109.343,161.171 124.01,161.504 138.5,162.5C 136.833,162.5 135.167,162.5 133.5,162.5C 102.832,162.333 72.1649,162.5 41.5,163C 39.559,164.903 37.2257,165.736 34.5,165.5C 35.7489,163.864 37.4156,162.697 39.5,162C 54.1629,161.5 68.8295,161.333 83.5,161.5 Z"/></g>
<g><path style="opacity:1" fill="#f54d38" d="M 133.5,162.5 C 134.598,163.397 134.598,164.23 133.5,165C 131.132,165.856 128.798,166.69 126.5,167.5C 125.605,170.738 125.605,173.905 126.5,177C 130.519,177.771 134.352,178.938 138,180.5C 140.626,180.95 142.126,179.95 142.5,177.5C 142.5,175.833 142.5,174.167 142.5,172.5C 142.461,170.641 143.294,169.308 145,168.5C 147.409,172.134 148.575,176.134 148.5,180.5C 148.5,181.167 148.5,181.833 148.5,182.5C 146.088,182.694 145.088,184.027 145.5,186.5C 144.022,186.238 142.689,186.571 141.5,187.5C 140.855,189.432 139.521,190.599 137.5,191C 104.812,191.915 72.1454,191.582 39.5,190C 38.3147,188.647 36.9814,187.48 35.5,186.5C 34.5481,184.955 34.2148,183.288 34.5,181.5C 33.5,181.5 32.5,181.5 31.5,181.5C 31.307,177.434 31.6403,173.434 32.5,169.5C 33.6005,168.395 34.2671,167.062 34.5,165.5C 37.2257,165.736 39.559,164.903 41.5,163C 72.1649,162.5 102.832,162.333 133.5,162.5 Z"/></g>
<g><path style="opacity:1" fill="#cf6b5d" d="M 34.5,165.5 C 34.2671,167.062 33.6005,168.395 32.5,169.5C 31.8333,169.833 31.1667,170.167 30.5,170.5C 31.0798,168.251 32.4131,166.585 34.5,165.5 Z"/></g>
<g><path style="opacity:1" fill="#e75942" d="M 133.5,162.5 C 135.167,162.5 136.833,162.5 138.5,162.5C 147.117,165.743 150.45,171.743 148.5,180.5C 148.575,176.134 147.409,172.134 145,168.5C 143.294,169.308 142.461,170.641 142.5,172.5C 139.82,169.49 136.487,167.49 132.5,166.5C 128.96,168.683 128.627,171.349 131.5,174.5C 132.325,175.386 133.325,175.719 134.5,175.5C 134.78,179.225 136.78,180.392 140.5,179C 141.044,178.283 141.711,177.783 142.5,177.5C 142.126,179.95 140.626,180.95 138,180.5C 134.352,178.938 130.519,177.771 126.5,177C 125.605,173.905 125.605,170.738 126.5,167.5C 128.798,166.69 131.132,165.856 133.5,165C 134.598,164.23 134.598,163.397 133.5,162.5 Z"/></g>
<g><path style="opacity:1" fill="#fddab9" d="M 142.5,172.5 C 142.5,174.167 142.5,175.833 142.5,177.5C 141.711,177.783 141.044,178.283 140.5,179C 136.78,180.392 134.78,179.225 134.5,175.5C 133.325,175.719 132.325,175.386 131.5,174.5C 128.627,171.349 128.96,168.683 132.5,166.5C 136.487,167.49 139.82,169.49 142.5,172.5 Z"/></g>
<g><path style="opacity:1" fill="#ec948b" d="M 29.5,173.5 C 29.4595,176.881 29.7929,180.214 30.5,183.5C 29.0277,181.883 28.361,179.883 28.5,177.5C 28.5108,175.955 28.8442,174.622 29.5,173.5 Z"/></g>
<g><path style="opacity:1" fill="#e05f4e" d="M 32.5,169.5 C 31.6403,173.434 31.307,177.434 31.5,181.5C 32.5,181.5 33.5,181.5 34.5,181.5C 34.2148,183.288 34.5481,184.955 35.5,186.5C 36.9814,187.48 38.3147,188.647 39.5,190C 72.1454,191.582 104.812,191.915 137.5,191C 139.521,190.599 140.855,189.432 141.5,187.5C 142.689,186.571 144.022,186.238 145.5,186.5C 145.088,184.027 146.088,182.694 148.5,182.5C 146.386,188.071 142.386,191.571 136.5,193C 122.837,193.5 109.171,193.667 95.5,193.5C 95.1667,193.5 94.8333,193.5 94.5,193.5C 90.8333,193.5 87.1667,193.5 83.5,193.5C 69.1628,193.667 54.8295,193.5 40.5,193C 36.0073,191.006 32.674,187.84 30.5,183.5C 29.7929,180.214 29.4595,176.881 29.5,173.5C 29.2627,172.209 29.596,171.209 30.5,170.5C 31.1667,170.167 31.8333,169.833 32.5,169.5 Z"/></g>
<g><path style="opacity:1" fill="#9bbbb9" d="M 94.5,193.5 C 94.8333,193.5 95.1667,193.5 95.5,193.5C 95.5,194.5 95.5,195.5 95.5,196.5C 119.339,196.169 143.006,196.502 166.5,197.5C 142.5,197.5 118.5,197.5 94.5,197.5C 94.5,196.167 94.5,194.833 94.5,193.5 Z"/></g>
<g><path style="opacity:1" fill="#3b837c" d="M 83.5,193.5 C 87.1667,193.5 90.8333,193.5 94.5,193.5C 94.5,194.833 94.5,196.167 94.5,197.5C 118.5,197.5 142.5,197.5 166.5,197.5C 166.823,203.69 166.49,209.69 165.5,215.5C 115.003,214.501 64.3361,214.168 13.5,214.5C 13.5,209.167 13.5,203.833 13.5,198.5C 36.5024,198.667 59.5024,198.5 82.5,198C 59.169,197.5 35.8357,197.333 12.5,197.5C 35.9941,196.502 59.6608,196.169 83.5,196.5C 83.5,195.5 83.5,194.5 83.5,193.5 Z"/></g>
<g><path style="opacity:1" fill="#328579" d="M 19.5,207.5 C 65.4616,207.768 113.128,208.101 162.5,208.5C 162.587,211.598 162.087,211.932 161,209.5C 157,209.5 153,209.5 149,209.5C 148.5,210 148,210.5 147.5,211C 104.167,211.667 60.8333,211.667 17.5,211C 18.8228,210.184 19.4894,209.017 19.5,207.5 Z"/></g>
<g><path style="opacity:1" fill="#3d7972" d="M 12.5,197.5 C 35.8357,197.333 59.169,197.5 82.5,198C 59.5024,198.5 36.5024,198.667 13.5,198.5C 13.5,203.833 13.5,209.167 13.5,214.5C 64.3361,214.168 115.003,214.501 165.5,215.5C 114.167,215.5 62.8333,215.5 11.5,215.5C 11.1771,209.31 11.5104,203.31 12.5,197.5 Z"/></g>
</svg>
