<?xml version="1.0" encoding="UTF-8"?>
<!DOCTYPE svg PUBLIC "-//W3C//DTD SVG 1.1//EN" "http://www.w3.org/Graphics/SVG/1.1/DTD/svg11.dtd">
<svg xmlns="http://www.w3.org/2000/svg" version="1.1" width="212px" height="272px" style="shape-rendering:geometricPrecision; text-rendering:geometricPrecision; image-rendering:optimizeQuality; fill-rule:evenodd; clip-rule:evenodd" xmlns:xlink="http://www.w3.org/1999/xlink">
<g><path style="opacity:1" fill="#fefefd" d="M -0.5,-0.5 C 70.1667,-0.5 140.833,-0.5 211.5,-0.5C 211.5,90.1667 211.5,180.833 211.5,271.5C 140.833,271.5 70.1667,271.5 -0.5,271.5C -0.5,180.833 -0.5,90.1667 -0.5,-0.5 Z"/></g>
<g><path style="opacity:1" fill="#d66354" d="M 118.5,33.5 C 114.755,30.2701 110.588,27.6034 106,25.5C 99.7014,30.0579 93.5348,34.7245 87.5,39.5C 91.6639,34.5032 96.3306,30.0032 101.5,26C 103.067,24.9242 104.734,24.0909 106.5,23.5C 111.267,25.8876 115.267,29.221 118.5,33.5 Z"/></g>
<g><path style="opacity:1" fill="#f44d38" d="M 118.5,33.5 C 119.203,35.7157 120.536,37.549 122.5,39C 120.512,39.1805 118.512,39.0138 116.5,38.5C 116.5,39.5 116.5,40.5 116.5,41.5C 112.668,41.1902 111.168,42.8569 112,46.5C 115.604,49.3014 119.438,51.6347 123.5,53.5C 123.5,54.5 123.5,55.5 123.5,56.5C 126.167,56.5 128.833,56.5 131.5,56.5C 131.338,54.4727 131.505,52.4727 132,50.5C 133.451,53.3034 135.618,55.3034 138.5,56.5C 139.5,56.8333 140.167,57.5 140.5,58.5C 140.833,59.1667 141.167,59.8333 141.5,60.5C 134.038,64.3654 126.038,66.3654 117.5,66.5C 109.826,66.6664 102.159,66.4997 94.5,66C 87.7055,64.8583 81.3722,63.025 75.5,60.5C 75.5,59.1667 75.5,57.8333 75.5,56.5C 78.0319,51.4655 81.5319,47.1322 86,43.5C 86.7914,42.255 87.2914,40.9217 87.5,39.5C 93.5348,34.7245 99.7014,30.0579 106,25.5C 110.588,27.6034 114.755,30.2701 118.5,33.5 Z"/></g>
<g><path style="opacity:1" fill="#f4c7a5" d="M 121.5,41.5 C 125.075,43.9082 127.742,47.0749 129.5,51C 128.764,54.5284 126.764,55.3617 123.5,53.5C 120.776,50.7792 118.442,47.7792 116.5,44.5C 117.073,41.9147 118.739,40.9147 121.5,41.5 Z"/></g>
<g><path style="opacity:1" fill="#e7543c" d="M 118.5,33.5 C 120.833,35.1667 122.833,37.1667 124.5,39.5C 124.649,40.552 124.483,41.552 124,42.5C 123.329,41.7476 122.496,41.4142 121.5,41.5C 118.739,40.9147 117.073,41.9147 116.5,44.5C 118.442,47.7792 120.776,50.7792 123.5,53.5C 119.438,51.6347 115.604,49.3014 112,46.5C 111.168,42.8569 112.668,41.1902 116.5,41.5C 116.5,40.5 116.5,39.5 116.5,38.5C 118.512,39.0138 120.512,39.1805 122.5,39C 120.536,37.549 119.203,35.7157 118.5,33.5 Z"/></g>
<g><path style="opacity:1" fill="#d76455" d="M 87.5,39.5 C 87.2914,40.9217 86.7914,42.255 86,43.5C 81.5319,47.1322 78.0319,51.4655 75.5,56.5C 74.2584,58.3888 74.2584,60.3888 75.5,62.5C 73.368,62.4456 72.0347,61.4456 71.5,59.5C 75.883,52.064 81.2164,45.3973 87.5,39.5 Z"/></g>
<g><path style="opacity:1" fill="#e05d48" d="M 124.5,39.5 C 126.797,41.2941 128.963,43.2941 131,45.5C 134.015,48.8777 136.515,52.5444 138.5,56.5C 135.618,55.3034 133.451,53.3034 132,50.5C 131.505,52.4727 131.338,54.4727 131.5,56.5C 128.833,56.5 126.167,56.5 123.5,56.5C 123.5,55.5 123.5,54.5 123.5,53.5C 126.764,55.3617 128.764,54.5284 129.5,51C 127.742,47.0749 125.075,43.9082 121.5,41.5C 122.496,41.4142 123.329,41.7476 124,42.5C 124.483,41.552 124.649,40.552 124.5,39.5 Z"/></g>
<g><path style="opacity:1" fill="#e76048" d="M 75.5,56.5 C 75.5,57.8333 75.5,59.1667 75.5,60.5C 81.3722,63.025 87.7055,64.8583 94.5,66C 102.159,66.4997 109.826,66.6664 117.5,66.5C 117.389,67.1174 117.056,67.6174 116.5,68C 108.841,68.4997 101.174,68.6664 93.5,68.5C 87.3972,66.8076 81.3972,64.8076 75.5,62.5C 74.2584,60.3888 74.2584,58.3888 75.5,56.5 Z"/></g>
<g><path style="opacity:1" fill="#f8c5a2" d="M 141.5,60.5 C 141.5,60.8333 141.5,61.1667 141.5,61.5C 140.517,62.8503 139.184,63.8503 137.5,64.5C 137.977,65.4776 138.643,66.3109 139.5,67C 139.167,67.1667 138.833,67.3333 138.5,67.5C 137.575,66.3595 136.741,66.3595 136,67.5C 135.692,66.6919 135.192,66.0253 134.5,65.5C 120.971,70.3231 107.304,71.3231 93.5,68.5C 101.174,68.6664 108.841,68.4997 116.5,68C 117.056,67.6174 117.389,67.1174 117.5,66.5C 126.038,66.3654 134.038,64.3654 141.5,60.5 Z"/></g>
<g><path style="opacity:1" fill="#e7d1b8" d="M 140.5,58.5 C 141.376,58.3691 142.043,58.7025 142.5,59.5C 143.32,61.9738 144.32,64.3071 145.5,66.5C 159.198,91.6043 163.531,118.271 158.5,146.5C 158.667,134.162 158.5,121.829 158,109.5C 155.724,102.331 154.057,94.9979 153,87.5C 150.268,83.7594 147.934,79.7594 146,75.5C 145.503,73.1902 145.337,70.8568 145.5,68.5C 144.022,68.238 142.689,68.5713 141.5,69.5C 142.506,70.3957 142.506,71.0623 141.5,71.5C 141.97,68.1275 141.97,64.7941 141.5,61.5C 141.5,61.1667 141.5,60.8333 141.5,60.5C 141.167,59.8333 140.833,59.1667 140.5,58.5 Z"/></g>
<g><path style="opacity:1" fill="#fcf8ed" d="M 145.5,66.5 C 147.54,69.1579 150.04,71.4912 153,73.5C 155.474,82.8232 158.307,92.3232 161.5,102C 160.617,118.52 160.284,134.686 160.5,150.5C 160.167,150.5 159.833,150.5 159.5,150.5C 158.766,149.292 158.433,147.959 158.5,146.5C 163.531,118.271 159.198,91.6043 145.5,66.5 Z"/></g>
<g><path style="opacity:1" fill="#ebcdac" d="M 71.5,59.5 C 72.0347,61.4456 73.368,62.4456 75.5,62.5C 81.3972,64.8076 87.3972,66.8076 93.5,68.5C 107.304,71.3231 120.971,70.3231 134.5,65.5C 135.192,66.0253 135.692,66.6919 136,67.5C 136.741,66.3595 137.575,66.3595 138.5,67.5C 138.833,67.3333 139.167,67.1667 139.5,67C 138.643,66.3109 137.977,65.4776 137.5,64.5C 139.184,63.8503 140.517,62.8503 141.5,61.5C 141.97,64.7941 141.97,68.1275 141.5,71.5C 142.506,71.0623 142.506,70.3957 141.5,69.5C 142.689,68.5713 144.022,68.238 145.5,68.5C 145.337,70.8568 145.503,73.1902 146,75.5C 147.934,79.7594 150.268,83.7594 153,87.5C 154.057,94.9979 155.724,102.331 158,109.5C 158.5,121.829 158.667,134.162 158.5,146.5C 158.433,147.959 158.766,149.292 159.5,150.5C 158.167,150.5 157.5,151.167 157.5,152.5C 157.5,153.167 157.5,153.833 157.5,154.5C 123.722,156.482 89.7222,157.149 55.5,156.5C 55.7845,154.585 55.4511,152.919 54.5,151.5C 54.5,150.833 54.1667,150.5 53.5,150.5C 51.6697,132.429 52.1697,114.429 55,96.5C 58.4907,83.1652 63.9907,70.8318 71.5,59.5 Z"/></g>
<g><path style="opacity:1" fill="#418075" d="M 131.5,91.5 C 137.571,99.7846 139.905,109.118 138.5,119.5C 130.539,139.815 115.873,147.482 94.5,142.5C 90.6641,140.416 86.9974,138.083 83.5,135.5C 74.5142,124.892 71.8476,112.892 75.5,99.5C 87.2761,79.6327 103.609,74.7994 124.5,85C 126.703,87.3722 129.037,89.5389 131.5,91.5 Z"/></g>
<g><path style="opacity:1" fill="#9a9795" d="M 124.5,95.5 C 128.502,97.4847 130.502,100.818 130.5,105.5C 119.833,115.5 109.5,125.833 99.5,136.5C 95.1918,136.017 91.8585,134.017 89.5,130.5C 101.473,119.194 113.14,107.527 124.5,95.5 Z"/></g>
<g><path style="opacity:1" fill="#989391" d="M 110.5,87.5 C 113.01,87.0535 115.01,87.7202 116.5,89.5C 105.833,100.833 94.8333,111.833 83.5,122.5C 81.9261,120.898 81.2594,118.898 81.5,116.5C 91.5,107.167 101.167,97.5 110.5,87.5 Z"/></g>
<g><path style="opacity:1" fill="#38302d" d="M 116.5,89.5 C 120.361,90.0789 123.027,92.0789 124.5,95.5C 113.14,107.527 101.473,119.194 89.5,130.5C 86.4101,128.732 84.4101,126.065 83.5,122.5C 94.8333,111.833 105.833,100.833 116.5,89.5 Z"/></g>
<g><path style="opacity:1" fill="#36302d" d="M 110.5,87.5 C 101.167,97.5 91.5,107.167 81.5,116.5C 79.4383,98.6786 87.4383,88.6786 105.5,86.5C 107.369,86.5068 109.036,86.8401 110.5,87.5 Z"/></g>
<g><path style="opacity:1" fill="#d0d2b9" d="M 131.5,91.5 C 135.71,94.2165 138.21,98.2165 139,103.5C 139.817,109.016 139.651,114.35 138.5,119.5C 139.905,109.118 137.571,99.7846 131.5,91.5 Z"/></g>
<g><path style="opacity:1" fill="#d6d0b5" d="M 75.5,99.5 C 71.8476,112.892 74.5142,124.892 83.5,135.5C 80.9308,134.604 78.9308,132.938 77.5,130.5C 72.49,121.778 71.1567,112.445 73.5,102.5C 71.7438,100.809 71.2438,98.8087 72,96.5C 72.7589,98.0629 73.9256,99.0629 75.5,99.5 Z"/></g>
<g><path style="opacity:1" fill="#362f2c" d="M 130.5,105.5 C 133.547,124.808 125.214,135.475 105.5,137.5C 103.304,137.495 101.304,137.162 99.5,136.5C 109.5,125.833 119.833,115.5 130.5,105.5 Z"/></g>
<g><path style="opacity:1" fill="#d9d1b7" d="M 138.5,119.5 C 137.616,127.555 133.949,134.055 127.5,139C 122.465,141.341 117.465,143.674 112.5,146C 107.809,146.65 103.143,146.483 98.5,145.5C 96.4115,145.38 95.0782,144.38 94.5,142.5C 115.873,147.482 130.539,139.815 138.5,119.5 Z"/></g>
<g><path style="opacity:1" fill="#b5604e" d="M 159.5,150.5 C 159.833,150.5 160.167,150.5 160.5,150.5C 161.167,151.167 161.833,151.833 162.5,152.5C 160.833,152.5 159.167,152.5 157.5,152.5C 157.5,151.167 158.167,150.5 159.5,150.5 Z"/></g>
<g><path style="opacity:1" fill="#fec8a5" d="M 54.5,151.5 C 55.4511,152.919 55.7845,154.585 55.5,156.5C 89.7222,157.149 123.722,156.482 157.5,154.5C 158.354,156.035 158.354,157.368 157.5,158.5C 122.833,157.833 88.1667,157.167 53.5,156.5C 53.5,156.167 53.5,155.833 53.5,155.5C 54.4345,154.432 54.7678,153.099 54.5,151.5 Z"/></g>
<g><path style="opacity:1" fill="#bb5241" d="M 53.5,150.5 C 54.1667,150.5 54.5,150.833 54.5,151.5C 54.7678,153.099 54.4345,154.432 53.5,155.5C 53.5,154.5 53.5,153.5 53.5,152.5C 52.5,152.5 51.5,152.5 50.5,152.5C 50.5,153.5 50.5,154.5 50.5,155.5C 48.8008,155.34 47.1341,155.506 45.5,156C 44.4495,157.385 43.1161,158.385 41.5,159C 37.6346,163.694 33.6346,168.194 29.5,172.5C 34.6193,162.048 42.6193,154.715 53.5,150.5 Z"/></g>
<g><path style="opacity:1" fill="#d94c39" d="M 157.5,152.5 C 159.167,152.5 160.833,152.5 162.5,152.5C 166.542,153.851 169.875,156.185 172.5,159.5C 168.866,159.351 166.199,157.684 164.5,154.5C 163.548,156.045 163.215,157.712 163.5,159.5C 161.821,159.285 160.821,159.952 160.5,161.5C 158.938,161.267 157.605,160.6 156.5,159.5C 123.167,159.5 89.8333,159.5 56.5,159.5C 55.8333,159.5 55.5,159.167 55.5,158.5C 89.5,158.5 123.5,158.5 157.5,158.5C 158.354,157.368 158.354,156.035 157.5,154.5C 157.5,153.833 157.5,153.167 157.5,152.5 Z"/></g>
<g><path style="opacity:1" fill="#bc5140" d="M 29.5,172.5 C 28.4424,177.985 26.7758,183.318 24.5,188.5C 23.6695,193.466 23.3362,198.466 23.5,203.5C 20.7722,192.298 22.7722,181.965 29.5,172.5 Z"/></g>
<g><path style="opacity:1" fill="#d23d27" d="M 53.5,155.5 C 53.5,155.833 53.5,156.167 53.5,156.5C 52.9569,156.56 52.6236,156.893 52.5,157.5C 53.325,158.386 54.325,158.719 55.5,158.5C 55.5,159.167 55.8333,159.5 56.5,159.5C 56.423,163.215 56.7564,166.881 57.5,170.5C 89.8333,170.5 122.167,170.5 154.5,170.5C 155.167,166.833 155.833,163.167 156.5,159.5C 157.605,160.6 158.938,161.267 160.5,161.5C 161.914,163.054 163.581,164.388 165.5,165.5C 166.122,167.122 167.122,168.455 168.5,169.5C 170.293,172.548 171.293,175.882 171.5,179.5C 172.5,179.5 173.5,179.5 174.5,179.5C 174.5,179.833 174.5,180.167 174.5,180.5C 174.777,184.885 175.777,188.885 177.5,192.5C 177.5,193.167 177.5,193.833 177.5,194.5C 177.5,195.833 177.5,197.167 177.5,198.5C 178.5,198.5 179.5,198.5 180.5,198.5C 180.5,197.5 180.5,196.5 180.5,195.5C 180.825,190.401 180.325,185.401 179,180.5C 176.53,176.331 174.363,171.998 172.5,167.5C 171.264,166.754 169.93,166.421 168.5,166.5C 169.513,162.187 167.846,159.854 163.5,159.5C 163.215,157.712 163.548,156.045 164.5,154.5C 166.199,157.684 168.866,159.351 172.5,159.5C 175.075,162.598 177.075,166.098 178.5,170C 177.453,171.578 177.453,173.078 178.5,174.5C 179.251,173.624 179.751,172.624 180,171.5C 182.847,176.766 185.513,182.099 188,187.5C 188.77,196.579 188.27,205.579 186.5,214.5C 186.5,214.833 186.5,215.167 186.5,215.5C 184.635,217.513 182.968,219.846 181.5,222.5C 180.702,224.078 180.202,225.744 180,227.5C 179.667,227.167 179.333,226.833 179,226.5C 178.545,229.854 178.045,233.187 177.5,236.5C 177.5,236.833 177.5,237.167 177.5,237.5C 172.505,237.787 171.505,236.12 174.5,232.5C 175.466,230.604 175.799,228.604 175.5,226.5C 175.5,226.167 175.5,225.833 175.5,225.5C 176.345,224.329 177.011,222.995 177.5,221.5C 177.5,221.167 177.5,220.833 177.5,220.5C 179.067,219.319 179.901,217.653 180,215.5C 180.499,211.514 180.666,207.514 180.5,203.5C 180.598,200.752 179.598,200.086 177.5,201.5C 176.26,205.647 175.26,209.981 174.5,214.5C 172.92,209.555 169.92,208.389 165.5,211C 166.646,211.645 167.646,212.478 168.5,213.5C 169.623,211.711 170.956,211.378 172.5,212.5C 170.575,215.697 170.575,218.697 172.5,221.5C 171.689,222.216 171.022,223.05 170.5,224C 171.233,225.766 171.567,227.599 171.5,229.5C 169.945,232.243 167.778,234.576 165,236.5C 163.731,235.095 163.231,233.429 163.5,231.5C 162.167,231.5 160.833,231.5 159.5,231.5C 159.328,229.508 159.995,227.842 161.5,226.5C 159.5,225.833 157.5,225.167 155.5,224.5C 154.932,221.548 153.766,218.881 152,216.5C 151.329,217.252 150.496,217.586 149.5,217.5C 149.5,217.167 149.5,216.833 149.5,216.5C 145.62,209.094 145.62,201.761 149.5,194.5C 149.457,193.584 149.124,192.917 148.5,192.5C 120.672,191.502 92.6716,191.169 64.5,191.5C 64.2627,192.791 64.596,193.791 65.5,194.5C 66.038,196.117 66.3713,197.784 66.5,199.5C 66.6653,203.182 66.4986,206.848 66,210.5C 64.1079,211.617 63.2746,213.284 63.5,215.5C 63.5,215.833 63.5,216.167 63.5,216.5C 60.5657,217.289 58.7324,219.289 58,222.5C 57.6667,222.167 57.3333,221.833 57,221.5C 56.5065,223.134 56.3398,224.801 56.5,226.5C 55.5,226.5 54.5,226.5 53.5,226.5C 53.6602,228.199 53.4935,229.866 53,231.5C 52.3333,232.833 51.6667,232.833 51,231.5C 50.7163,235.003 49.2163,237.669 46.5,239.5C 45.3077,237.887 44.3077,236.22 43.5,234.5C 41.8597,231.15 41.0263,227.483 41,223.5C 39.1286,221.495 37.7953,219.161 37,216.5C 34.5424,203.995 35.0424,191.662 38.5,179.5C 40.3927,176.535 42.226,173.535 44,170.5C 44.7401,169.251 44.5735,168.251 43.5,167.5C 42.8333,167.5 42.1667,167.5 41.5,167.5C 39.6127,168.656 38.2794,170.323 37.5,172.5C 37.5,173.167 37.5,173.833 37.5,174.5C 36.5416,174.953 35.7083,175.619 35,176.5C 34.7096,178.92 34.2096,181.254 33.5,183.5C 32.0966,186.909 31.4299,190.575 31.5,194.5C 31.5,195.833 31.5,197.167 31.5,198.5C 31.5,199.167 31.5,199.833 31.5,200.5C 31.5,201.833 31.5,203.167 31.5,204.5C 31.7685,212.554 33.1019,220.387 35.5,228C 35,228.5 34.5,229 34,229.5C 33.029,227.039 31.529,225.039 29.5,223.5C 26.1173,217.344 24.1173,210.677 23.5,203.5C 23.3362,198.466 23.6695,193.466 24.5,188.5C 26.7758,183.318 28.4424,177.985 29.5,172.5C 33.6346,168.194 37.6346,163.694 41.5,159C 43.1161,158.385 44.4495,157.385 45.5,156C 47.1341,155.506 48.8008,155.34 50.5,155.5C 50.5,154.5 50.5,153.5 50.5,152.5C 51.5,152.5 52.5,152.5 53.5,152.5C 53.5,153.5 53.5,154.5 53.5,155.5 Z"/></g>
<g><path style="opacity:1" fill="#ffbfa3" d="M 174.5,180.5 C 174.5,180.167 174.5,179.833 174.5,179.5C 175.077,178.227 175.743,178.227 176.5,179.5C 176.043,180.298 175.376,180.631 174.5,180.5 Z"/></g>
<g><path style="opacity:1" fill="#d35437" d="M 58.5,174.5 C 58.8333,174.5 59.1667,174.5 59.5,174.5C 59.33,175.822 59.6634,176.989 60.5,178C 91.1649,178.5 121.832,178.667 152.5,178.5C 152.5,179.167 152.167,179.5 151.5,179.5C 121.167,179.5 90.8333,179.5 60.5,179.5C 58.7868,178.365 58.1201,176.698 58.5,174.5 Z"/></g>
<g><path style="opacity:1" fill="#fec1a0" d="M 153.5,172.5 C 153.167,174.5 152.833,176.5 152.5,178.5C 121.832,178.667 91.1649,178.5 60.5,178C 59.6634,176.989 59.33,175.822 59.5,174.5C 90.4822,172.507 121.816,171.841 153.5,172.5 Z"/></g>
<g><path style="opacity:1" fill="#efccae" d="M 67.5,173.5 C 95.5,173.5 123.5,173.5 151.5,173.5C 151.5,174.5 151.5,175.5 151.5,176.5C 123.159,176.833 94.8255,176.5 66.5,175.5C 66.8627,174.817 67.1961,174.15 67.5,173.5 Z"/></g>
<g><path style="opacity:1" fill="#faad8b" d="M 37.5,172.5 C 40.9571,172.667 41.2904,173.667 38.5,175.5C 37.8933,175.376 37.56,175.043 37.5,174.5C 37.5,173.833 37.5,173.167 37.5,172.5 Z"/></g>
<g><path style="opacity:1" fill="#e78d6c" d="M 153.5,172.5 C 121.816,171.841 90.4822,172.507 59.5,174.5C 59.1667,174.5 58.8333,174.5 58.5,174.5C 58.5,173.5 58.5,172.5 58.5,171.5C 90.3377,171.168 122.004,171.502 153.5,172.5 Z"/></g>
<g><path style="opacity:1" fill="#c64c34" d="M 163.5,159.5 C 167.846,159.854 169.513,162.187 168.5,166.5C 169.93,166.421 171.264,166.754 172.5,167.5C 174.363,171.998 176.53,176.331 179,180.5C 180.325,185.401 180.825,190.401 180.5,195.5C 179.609,194.89 178.609,194.557 177.5,194.5C 177.5,193.833 177.5,193.167 177.5,192.5C 175.777,188.885 174.777,184.885 174.5,180.5C 175.376,180.631 176.043,180.298 176.5,179.5C 175.743,178.227 175.077,178.227 174.5,179.5C 173.5,179.5 172.5,179.5 171.5,179.5C 171.293,175.882 170.293,172.548 168.5,169.5C 167.122,168.455 166.122,167.122 165.5,165.5C 163.581,164.388 161.914,163.054 160.5,161.5C 162.598,162.914 163.598,162.248 163.5,159.5 Z"/></g>
<g><path style="opacity:1" fill="#fdb496" d="M 171.5,172.5 C 172.995,172.415 173.995,173.081 174.5,174.5C 172.604,175.639 171.604,174.973 171.5,172.5 Z"/></g>
<g><path style="opacity:1" fill="#fbb897" d="M 168.5,169.5 C 169.216,166.988 170.216,166.988 171.5,169.5C 170.575,170.562 169.575,170.562 168.5,169.5 Z"/></g>
<g><path style="opacity:1" fill="#ffba9d" d="M 165.5,165.5 C 165.369,164.624 165.702,163.957 166.5,163.5C 167.873,165.808 167.54,166.475 165.5,165.5 Z"/></g>
<g><path style="opacity:1" fill="#feb899" d="M 45.5,162.5 C 48.1247,163.466 48.1247,164.466 45.5,165.5C 44.4376,164.575 44.4376,163.575 45.5,162.5 Z"/></g>
<g><path style="opacity:1" fill="#f8b58f" d="M 163.5,159.5 C 163.598,162.248 162.598,162.914 160.5,161.5C 160.821,159.952 161.821,159.285 163.5,159.5 Z"/></g>
<g><path style="opacity:1" fill="#f64c36" d="M 56.5,159.5 C 89.8333,159.5 123.167,159.5 156.5,159.5C 155.833,163.167 155.167,166.833 154.5,170.5C 122.167,170.5 89.8333,170.5 57.5,170.5C 56.7564,166.881 56.423,163.215 56.5,159.5 Z"/></g>
<g><path style="opacity:1" fill="#ffc5a1" d="M 48.5,159.5 C 51.7973,159.329 52.1306,159.995 49.5,161.5C 48.7025,161.043 48.3691,160.376 48.5,159.5 Z"/></g>
<g><path style="opacity:1" fill="#ee7e67" d="M 53.5,156.5 C 88.1667,157.167 122.833,157.833 157.5,158.5C 123.5,158.5 89.5,158.5 55.5,158.5C 54.325,158.719 53.325,158.386 52.5,157.5C 52.6236,156.893 52.9569,156.56 53.5,156.5 Z"/></g>
<g><path style="opacity:1" fill="#f44d38" d="M 60.5,179.5 C 90.8333,179.5 121.167,179.5 151.5,179.5C 150.417,183.085 149.751,186.751 149.5,190.5C 120.826,190.833 92.1589,190.5 63.5,189.5C 62.1871,186.246 61.1871,182.912 60.5,179.5 Z"/></g>
<g><path style="opacity:1" fill="#ffb899" d="M 176.5,183.5 C 178.465,183.948 178.798,184.948 177.5,186.5C 176.614,185.675 176.281,184.675 176.5,183.5 Z"/></g>
<g><path style="opacity:1" fill="#e07358" d="M 148.5,192.5 C 148.5,193.167 148.167,193.5 147.5,193.5C 134.004,192.833 120.337,192.5 106.5,192.5C 92.4833,192.501 78.8166,193.167 65.5,194.5C 64.596,193.791 64.2627,192.791 64.5,191.5C 92.6716,191.169 120.672,191.502 148.5,192.5 Z"/></g>
<g><path style="opacity:1" fill="#ffb494" d="M 177.5,192.5 C 177.281,191.325 177.614,190.325 178.5,189.5C 179.798,191.052 179.465,192.052 177.5,192.5 Z"/></g>
<g><path style="opacity:1" fill="#fdc0a0" d="M 147.5,193.5 C 146.871,196.397 145.871,199.064 144.5,201.5C 144.5,198.833 144.5,196.167 144.5,193.5C 118.833,193.5 93.1667,193.5 67.5,193.5C 67.8333,196.167 68.1667,198.833 68.5,201.5C 67.8333,200.833 67.1667,200.167 66.5,199.5C 66.3713,197.784 66.038,196.117 65.5,194.5C 78.8166,193.167 92.4833,192.501 106.5,192.5C 120.337,192.5 134.004,192.833 147.5,193.5 Z"/></g>
<g><path style="opacity:1" fill="#f0947a" d="M 31.5,194.5 C 32.5,194.5 33.5,194.5 34.5,194.5C 34.5,195.833 34.5,197.167 34.5,198.5C 33.5,198.5 32.5,198.5 31.5,198.5C 31.5,197.167 31.5,195.833 31.5,194.5 Z"/></g>
<g><path style="opacity:1" fill="#ecccaa" d="M 144.5,201.5 C 143.659,203.379 143.325,205.379 143.5,207.5C 138.833,207.5 134.167,207.5 129.5,207.5C 129.657,206.127 129.49,204.793 129,203.5C 128.097,204.701 126.931,205.535 125.5,206C 111.788,206.815 98.1214,206.648 84.5,205.5C 83.7025,205.957 83.3691,206.624 83.5,207.5C 83.5,214.167 83.5,220.833 83.5,227.5C 82.5093,221.021 82.176,214.354 82.5,207.5C 78.1667,207.5 73.8333,207.5 69.5,207.5C 69.1667,205.5 68.8333,203.5 68.5,201.5C 68.1667,198.833 67.8333,196.167 67.5,193.5C 93.1667,193.5 118.833,193.5 144.5,193.5C 144.5,196.167 144.5,198.833 144.5,201.5 Z"/></g>
<g><path style="opacity:1" fill="#f09674" d="M 177.5,194.5 C 178.609,194.557 179.609,194.89 180.5,195.5C 180.5,196.5 180.5,197.5 180.5,198.5C 179.5,198.5 178.5,198.5 177.5,198.5C 177.5,197.167 177.5,195.833 177.5,194.5 Z"/></g>
<g><path style="opacity:1" fill="#c15240" d="M 172.5,159.5 C 185.539,170.911 191.373,185.244 190,202.5C 189.145,206.715 187.978,210.715 186.5,214.5C 188.27,205.579 188.77,196.579 188,187.5C 185.513,182.099 182.847,176.766 180,171.5C 179.751,172.624 179.251,173.624 178.5,174.5C 177.453,173.078 177.453,171.578 178.5,170C 177.075,166.098 175.075,162.598 172.5,159.5 Z"/></g>
<g><path style="opacity:1" fill="#ea8d78" d="M 31.5,200.5 C 32.5,200.5 33.5,200.5 34.5,200.5C 34.5,201.833 34.5,203.167 34.5,204.5C 33.5,204.5 32.5,204.5 31.5,204.5C 31.5,203.167 31.5,201.833 31.5,200.5 Z"/></g>
<g><path style="opacity:1" fill="#f79b7d" d="M 180.5,203.5 C 178.402,204.914 177.402,204.248 177.5,201.5C 179.598,200.086 180.598,200.752 180.5,203.5 Z"/></g>
<g><path style="opacity:1" fill="#c24635" d="M 148.5,192.5 C 149.124,192.917 149.457,193.584 149.5,194.5C 145.62,201.761 145.62,209.094 149.5,216.5C 147.265,213.709 145.265,210.709 143.5,207.5C 143.325,205.379 143.659,203.379 144.5,201.5C 145.871,199.064 146.871,196.397 147.5,193.5C 148.167,193.5 148.5,193.167 148.5,192.5 Z"/></g>
<g><path style="opacity:1" fill="#bf4c38" d="M 66.5,199.5 C 67.1667,200.167 67.8333,200.833 68.5,201.5C 68.8333,203.5 69.1667,205.5 69.5,207.5C 67.8847,210.45 65.8847,213.116 63.5,215.5C 63.2746,213.284 64.1079,211.617 66,210.5C 66.4986,206.848 66.6653,203.182 66.5,199.5 Z"/></g>
<g><path style="opacity:1" fill="#f7cb9a" d="M 129.5,207.5 C 114.167,207.5 98.8333,207.5 83.5,207.5C 83.3691,206.624 83.7025,205.957 84.5,205.5C 98.1214,206.648 111.788,206.815 125.5,206C 126.931,205.535 128.097,204.701 129,203.5C 129.49,204.793 129.657,206.127 129.5,207.5 Z"/></g>
<g><path style="opacity:1" fill="#fef5e8" d="M 69.5,207.5 C 73.8333,207.5 78.1667,207.5 82.5,207.5C 82.176,214.354 82.5093,221.021 83.5,227.5C 83.2322,229.099 83.5655,230.432 84.5,231.5C 84.5399,234.988 85.2066,238.321 86.5,241.5C 85.5041,241.586 84.6708,241.252 84,240.5C 81.6139,230.297 80.1139,219.964 79.5,209.5C 78.316,211.046 77.316,212.713 76.5,214.5C 76.1677,213.211 75.8344,211.545 75.5,209.5C 72.8129,209.341 70.4796,210.175 68.5,212C 66.8921,216.418 64.2254,219.918 60.5,222.5C 61.4706,220.517 62.4706,218.517 63.5,216.5C 63.5,216.167 63.5,215.833 63.5,215.5C 65.8847,213.116 67.8847,210.45 69.5,207.5 Z"/></g>
<g><path style="opacity:1" fill="#db893e" d="M 83.5,207.5 C 98.8333,207.5 114.167,207.5 129.5,207.5C 129.826,215.684 129.492,223.684 128.5,231.5C 127.756,234.36 127.089,237.36 126.5,240.5C 125.5,240.833 124.5,241.167 123.5,241.5C 121.97,241.36 120.97,240.693 120.5,239.5C 122.167,239.5 123.833,239.5 125.5,239.5C 125.877,234.677 126.71,230.011 128,225.5C 128.499,219.843 128.666,214.176 128.5,208.5C 124.5,208.5 120.5,208.5 116.5,208.5C 109.833,208.5 103.167,208.5 96.5,208.5C 92.5,208.5 88.5,208.5 84.5,208.5C 84.5,216.167 84.5,223.833 84.5,231.5C 83.5655,230.432 83.2322,229.099 83.5,227.5C 83.5,220.833 83.5,214.167 83.5,207.5 Z"/></g>
<g><path style="opacity:1" fill="#fef5e6" d="M 129.5,207.5 C 134.167,207.5 138.833,207.5 143.5,207.5C 145.265,210.709 147.265,213.709 149.5,216.5C 149.5,216.833 149.5,217.167 149.5,217.5C 150.11,218.391 150.443,219.391 150.5,220.5C 148.856,220.714 147.356,220.38 146,219.5C 145.304,215.133 144.137,211.967 142.5,210C 138.886,209.064 135.22,208.564 131.5,208.5C 132.004,216.487 131.504,224.487 130,232.5C 129.617,233.056 129.117,233.389 128.5,233.5C 128.5,232.833 128.5,232.167 128.5,231.5C 129.492,223.684 129.826,215.684 129.5,207.5 Z"/></g>
<g><path style="opacity:1" fill="#e88020" d="M 96.5,208.5 C 94.0989,215.406 93.9322,222.406 96,229.5C 97.6667,230.167 99.3333,230.833 101,231.5C 103.785,241.543 107.118,241.876 111,232.5C 112.444,230.845 114.278,230.178 116.5,230.5C 117.833,223.167 117.833,215.833 116.5,208.5C 120.5,208.5 124.5,208.5 128.5,208.5C 128.666,214.176 128.499,219.843 128,225.5C 126.71,230.011 125.877,234.677 125.5,239.5C 123.833,239.5 122.167,239.5 120.5,239.5C 120.157,237.775 119.157,237.275 117.5,238C 116.958,240.255 115.791,242.088 114,243.5C 112.684,246.688 112.184,250.022 112.5,253.5C 111.53,257.289 109.363,259.956 106,261.5C 103.308,260.469 101.808,258.469 101.5,255.5C 99.7549,251.661 98.2549,247.661 97,243.5C 96.2917,242.619 95.4584,241.953 94.5,241.5C 94.1667,240.5 93.5,239.833 92.5,239.5C 90.8632,240.218 89.1966,240.384 87.5,240C 87.162,236.746 86.162,233.912 84.5,231.5C 84.5,223.833 84.5,216.167 84.5,208.5C 88.5,208.5 92.5,208.5 96.5,208.5 Z"/></g>
<g><path style="opacity:1" fill="#fb9b46" d="M 96.5,208.5 C 103.167,208.5 109.833,208.5 116.5,208.5C 117.833,215.833 117.833,223.167 116.5,230.5C 114.278,230.178 112.444,230.845 111,232.5C 107.118,241.876 103.785,241.543 101,231.5C 99.3333,230.833 97.6667,230.167 96,229.5C 93.9322,222.406 94.0989,215.406 96.5,208.5 Z"/></g>
<g><path style="opacity:1" fill="#f39374" d="M 177.5,220.5 C 177.5,220.833 177.5,221.167 177.5,221.5C 173.921,221.234 173.587,219.901 176.5,217.5C 177.386,218.325 177.719,219.325 177.5,220.5 Z"/></g>
<g><path style="opacity:1" fill="#c8472f" d="M 41.5,167.5 C 40.4376,168.575 40.4376,169.575 41.5,170.5C 42.9185,169.995 43.5852,168.995 43.5,167.5C 44.5735,168.251 44.7401,169.251 44,170.5C 42.226,173.535 40.3927,176.535 38.5,179.5C 35.0424,191.662 34.5424,203.995 37,216.5C 37.7953,219.161 39.1286,221.495 41,223.5C 41.0263,227.483 41.8597,231.15 43.5,234.5C 41.9519,234.821 41.2852,235.821 41.5,237.5C 43.067,239.857 44.067,242.524 44.5,245.5C 43.1667,246.833 41.8333,246.833 40.5,245.5C 41.6446,244.109 41.6446,242.776 40.5,241.5C 39.914,241.709 39.414,242.043 39,242.5C 38.6667,240.833 38.3333,239.167 38,237.5C 36.2501,235.296 34.4168,233.296 32.5,231.5C 32.5,230.833 32.1667,230.5 31.5,230.5C 30.5448,228.254 29.8782,225.921 29.5,223.5C 31.529,225.039 33.029,227.039 34,229.5C 34.5,229 35,228.5 35.5,228C 33.1019,220.387 31.7685,212.554 31.5,204.5C 32.5,204.5 33.5,204.5 34.5,204.5C 34.5,203.167 34.5,201.833 34.5,200.5C 33.5,200.5 32.5,200.5 31.5,200.5C 31.5,199.833 31.5,199.167 31.5,198.5C 32.5,198.5 33.5,198.5 34.5,198.5C 34.5,197.167 34.5,195.833 34.5,194.5C 33.5,194.5 32.5,194.5 31.5,194.5C 31.4299,190.575 32.0966,186.909 33.5,183.5C 34.2096,181.254 34.7096,178.92 35,176.5C 35.7083,175.619 36.5416,174.953 37.5,174.5C 37.56,175.043 37.8933,175.376 38.5,175.5C 41.2904,173.667 40.9571,172.667 37.5,172.5C 38.2794,170.323 39.6127,168.656 41.5,167.5 Z"/></g>
<g><path style="opacity:1" fill="#ffc6a8" d="M 34.5,219.5 C 34.56,218.957 34.8933,218.624 35.5,218.5C 36.5827,219.365 36.7494,220.365 36,221.5C 35.7216,220.584 35.2216,219.918 34.5,219.5 Z"/></g>
<g><path style="opacity:1" fill="#ffc0ab" d="M 33.5,212.5 C 35.4646,212.948 35.7979,213.948 34.5,215.5C 33.6143,214.675 33.281,213.675 33.5,212.5 Z"/></g>
<g><path style="opacity:1" fill="#faae96" d="M 32.5,206.5 C 33.5862,206.62 34.2528,207.287 34.5,208.5C 34.1667,209.167 33.8333,209.833 33.5,210.5C 32.5713,209.311 32.238,207.978 32.5,206.5 Z"/></g>
<g><path style="opacity:1" fill="#ffb69f" d="M 32.5,189.5 C 34.4646,189.948 34.7979,190.948 33.5,192.5C 32.6143,191.675 32.281,190.675 32.5,189.5 Z"/></g>
<g><path style="opacity:1" fill="#febba3" d="M 33.5,183.5 C 35.4646,183.948 35.7979,184.948 34.5,186.5C 33.6143,185.675 33.281,184.675 33.5,183.5 Z"/></g>
<g><path style="opacity:1" fill="#fec1a7" d="M 35.5,177.5 C 37.9732,177.947 38.1399,178.947 36,180.5C 35.5172,179.552 35.3505,178.552 35.5,177.5 Z"/></g>
<g><path style="opacity:1" fill="#fbb693" d="M 41.5,167.5 C 42.1667,167.5 42.8333,167.5 43.5,167.5C 43.5852,168.995 42.9185,169.995 41.5,170.5C 40.4376,169.575 40.4376,168.575 41.5,167.5 Z"/></g>
<g><path style="opacity:1" fill="#fdba92" d="M 175.5,225.5 C 175.5,225.833 175.5,226.167 175.5,226.5C 173.535,226.052 173.202,225.052 174.5,223.5C 175.298,223.957 175.631,224.624 175.5,225.5 Z"/></g>
<g><path style="opacity:1" fill="#ed8a70" d="M 36.5,223.5 C 38.1207,223.787 39.1207,224.787 39.5,226.5C 38.675,227.386 37.675,227.719 36.5,227.5C 36.5,226.167 36.5,224.833 36.5,223.5 Z"/></g>
<g><path style="opacity:1" fill="#c24737" d="M 63.5,216.5 C 62.4706,218.517 61.4706,220.517 60.5,222.5C 55.4106,229.672 51.0773,237.339 47.5,245.5C 46.173,248.657 43.8396,249.824 40.5,249C 37.6905,243.215 35.0238,237.382 32.5,231.5C 34.4168,233.296 36.2501,235.296 38,237.5C 38.3333,239.167 38.6667,240.833 39,242.5C 39.414,242.043 39.914,241.709 40.5,241.5C 41.6446,242.776 41.6446,244.109 40.5,245.5C 41.8333,246.833 43.1667,246.833 44.5,245.5C 44.067,242.524 43.067,239.857 41.5,237.5C 43.0481,237.179 43.7148,236.179 43.5,234.5C 44.3077,236.22 45.3077,237.887 46.5,239.5C 49.2163,237.669 50.7163,235.003 51,231.5C 51.6667,232.833 52.3333,232.833 53,231.5C 53.4935,229.866 53.6602,228.199 53.5,226.5C 54.5,226.5 55.5,226.5 56.5,226.5C 56.3398,224.801 56.5065,223.134 57,221.5C 57.3333,221.833 57.6667,222.167 58,222.5C 58.7324,219.289 60.5657,217.289 63.5,216.5 Z"/></g>
<g><path style="opacity:1" fill="#bf4938" d="M 186.5,215.5 C 184.293,222.906 181.293,229.906 177.5,236.5C 178.045,233.187 178.545,229.854 179,226.5C 179.333,226.833 179.667,227.167 180,227.5C 180.202,225.744 180.702,224.078 181.5,222.5C 182.968,219.846 184.635,217.513 186.5,215.5 Z"/></g>
<g><path style="opacity:1" fill="#ffbea4" d="M 38.5,229.5 C 40.2252,229.843 40.7252,230.843 40,232.5C 38.9614,231.756 38.4614,230.756 38.5,229.5 Z"/></g>
<g><path style="opacity:1" fill="#fdbb9e" d="M 43.5,234.5 C 43.7148,236.179 43.0481,237.179 41.5,237.5C 41.2852,235.821 41.9519,234.821 43.5,234.5 Z"/></g>
<g><path style="opacity:1" fill="#ca442f" d="M 177.5,201.5 C 177.402,204.248 178.402,204.914 180.5,203.5C 180.666,207.514 180.499,211.514 180,215.5C 179.901,217.653 179.067,219.319 177.5,220.5C 177.719,219.325 177.386,218.325 176.5,217.5C 173.587,219.901 173.921,221.234 177.5,221.5C 177.011,222.995 176.345,224.329 175.5,225.5C 175.631,224.624 175.298,223.957 174.5,223.5C 173.202,225.052 173.535,226.052 175.5,226.5C 175.799,228.604 175.466,230.604 174.5,232.5C 171.505,236.12 172.505,237.787 177.5,237.5C 175.74,240.689 174.24,244.022 173,247.5C 171.445,249.515 169.611,249.848 167.5,248.5C 162.323,238.803 156.657,229.469 150.5,220.5C 150.443,219.391 150.11,218.391 149.5,217.5C 150.496,217.586 151.329,217.252 152,216.5C 153.766,218.881 154.932,221.548 155.5,224.5C 157.5,225.167 159.5,225.833 161.5,226.5C 159.995,227.842 159.328,229.508 159.5,231.5C 160.833,231.5 162.167,231.5 163.5,231.5C 163.231,233.429 163.731,235.095 165,236.5C 167.778,234.576 169.945,232.243 171.5,229.5C 171.567,227.599 171.233,225.766 170.5,224C 171.022,223.05 171.689,222.216 172.5,221.5C 170.575,218.697 170.575,215.697 172.5,212.5C 170.956,211.378 169.623,211.711 168.5,213.5C 167.646,212.478 166.646,211.645 165.5,211C 169.92,208.389 172.92,209.555 174.5,214.5C 175.26,209.981 176.26,205.647 177.5,201.5 Z"/></g>
<g><path style="opacity:1" fill="#ffbf9f" d="M 168.5,234.5 C 170.973,234.947 171.14,235.947 169,237.5C 168.517,236.552 168.351,235.552 168.5,234.5 Z"/></g>
<g><path style="opacity:1" fill="#f9c49c" d="M 171.5,229.5 C 173.337,229.639 173.67,230.306 172.5,231.5C 171.702,231.043 171.369,230.376 171.5,229.5 Z"/></g>
<g><path style="opacity:1" fill="#ffb79b" d="M 176.5,212.5 C 178.465,212.948 178.798,213.948 177.5,215.5C 176.614,214.675 176.281,213.675 176.5,212.5 Z"/></g>
<g><path style="opacity:1" fill="#ffba9a" d="M 177.5,206.5 C 179.465,206.948 179.798,207.948 178.5,209.5C 177.614,208.675 177.281,207.675 177.5,206.5 Z"/></g>
<g><path style="opacity:1" fill="#d28944" d="M 84.5,231.5 C 86.162,233.912 87.162,236.746 87.5,240C 89.1966,240.384 90.8632,240.218 92.5,239.5C 91.5994,241.727 89.9328,242.727 87.5,242.5C 86.8333,242.5 86.5,242.167 86.5,241.5C 85.2066,238.321 84.5399,234.988 84.5,231.5 Z"/></g>
<g><path style="opacity:1" fill="#fec5a5" d="M 165.5,239.5 C 167.973,239.947 168.14,240.947 166,242.5C 165.517,241.552 165.351,240.552 165.5,239.5 Z"/></g>
<g><path style="opacity:1" fill="#fec0a4" d="M 46.5,239.5 C 46.6713,242.797 46.0046,243.131 44.5,240.5C 44.9569,239.702 45.6236,239.369 46.5,239.5 Z"/></g>
<g><path style="opacity:1" fill="#fdf3dd" d="M 92.5,239.5 C 93.5,239.833 94.1667,240.5 94.5,241.5C 95.6865,245.263 97.0198,248.93 98.5,252.5C 97.8501,252.196 97.1835,251.863 96.5,251.5C 95.5742,248.956 94.5742,246.456 93.5,244C 92.1971,243.79 90.8638,243.957 89.5,244.5C 88.2867,244.253 87.62,243.586 87.5,242.5C 89.9328,242.727 91.5994,241.727 92.5,239.5 Z"/></g>
<g><path style="opacity:1" fill="#d98533" d="M 120.5,239.5 C 119.624,239.369 118.957,239.702 118.5,240.5C 117.023,244.935 115.356,249.269 113.5,253.5C 113.167,253.5 112.833,253.5 112.5,253.5C 112.184,250.022 112.684,246.688 114,243.5C 115.791,242.088 116.958,240.255 117.5,238C 119.157,237.275 120.157,237.775 120.5,239.5 Z"/></g>
<g><path style="opacity:1" fill="#fceae2" d="M 31.5,230.5 C 32.1667,230.5 32.5,230.833 32.5,231.5C 35.0238,237.382 37.6905,243.215 40.5,249C 43.8396,249.824 46.173,248.657 47.5,245.5C 47.3921,247.783 46.5588,249.783 45,251.5C 42.6194,250.565 40.1194,250.232 37.5,250.5C 35.9412,244.822 33.6079,239.489 30.5,234.5C 31.2458,233.264 31.5792,231.93 31.5,230.5 Z"/></g>
<g><path style="opacity:1" fill="#d48b47" d="M 94.5,241.5 C 95.4584,241.953 96.2917,242.619 97,243.5C 98.2549,247.661 99.7549,251.661 101.5,255.5C 100.272,254.694 99.2719,253.694 98.5,252.5C 97.0198,248.93 95.6865,245.263 94.5,241.5 Z"/></g>
<g><path style="opacity:1" fill="#fae5c5" d="M 128.5,231.5 C 128.5,232.167 128.5,232.833 128.5,233.5C 129.768,241.331 126.434,244.664 118.5,243.5C 118.657,244.873 118.49,246.207 118,247.5C 117.209,250.104 115.709,252.104 113.5,253.5C 115.356,249.269 117.023,244.935 118.5,240.5C 118.957,239.702 119.624,239.369 120.5,239.5C 120.97,240.693 121.97,241.36 123.5,241.5C 124.5,241.167 125.5,240.833 126.5,240.5C 127.089,237.36 127.756,234.36 128.5,231.5 Z"/></g>
</svg>
